Solitreo-700.ufo
<glyph name="exclam" format="2">
	<advance width="175"/>
	<unicode hex="0021"/>
	<outline>
		<contour>
			<point x="-33" y="18" type="curve" smooth="yes"/>
			<point x="-33" y="32"/>
			<point x="-27" y="45"/>
			<point x="-21" y="71" type="curve" smooth="yes"/>
			<point x="-16" y="95"/>
			<point x="7" y="97"/>
			<point x="29" y="97" type="curve" smooth="yes"/>
			<point x="30" y="97"/>
			<point x="31" y="97"/>
			<point x="32" y="97" type="curve" smooth="yes"/>
			<point x="55" y="97"/>
			<point x="69" y="97"/>
			<point x="69" y="73" type="curve" smooth="yes"/>
			<point x="69" y="29"/>
			<point x="26" y="0"/>
			<point x="-11" y="0" type="curve" smooth="yes"/>
			<point x="-31" y="0"/>
			<point x="-33" y="6"/>
		</contour>
		<contour>
			<point x="253" y="655" type="curve" smooth="yes"/>
			<point x="250" y="571"/>
			<point x="126" y="179"/>
			<point x="66" y="179" type="curve" smooth="yes"/>
			<point x="66" y="179"/>
			<point x="66" y="179"/>
			<point x="66" y="179" type="curve" smooth="yes"/>
			<point x="49" y="179"/>
			<point x="46" y="185"/>
			<point x="46" y="193" type="curve" smooth="yes"/>
			<point x="46" y="195"/>
			<point x="46" y="197"/>
			<point x="46" y="200" type="curve" smooth="yes"/>
			<point x="48" y="221"/>
			<point x="114" y="401"/>
			<point x="168" y="654" type="curve" smooth="yes"/>
			<point x="173" y="678"/>
			<point x="192" y="678"/>
			<point x="214" y="678" type="curve" smooth="yes"/>
			<point x="215" y="678"/>
			<point x="215" y="678"/>
			<point x="216" y="678" type="curve" smooth="yes"/>
			<point x="238" y="678"/>
			<point x="253" y="678"/>
			<point x="253" y="657" type="curve" smooth="yes"/>
			<point x="253" y="656"/>
			<point x="253" y="656"/>
		</contour>
	</outline>
</glyph>
<glyph name="dollar" format="2">
	<advance width="381"/>
	<unicode hex="0024"/>
	<outline>
		<contour>
			<point x="127" y="42" type="curve" smooth="yes"/>
			<point x="181" y="44"/>
			<point x="213" y="105"/>
			<point x="213" y="158" type="curve" smooth="yes"/>
			<point x="213" y="187"/>
			<point x="199" y="209"/>
			<point x="181" y="230" type="curve"/>
			<point x="157" y="161"/>
			<point x="132" y="95"/>
			<point x="109" y="43" type="curve"/>
			<point x="113" y="42"/>
			<point x="117" y="42"/>
			<point x="122" y="42" type="curve" smooth="yes"/>
			<point x="123" y="42"/>
			<point x="125" y="42"/>
		</contour>
		<contour>
			<point x="128" y="286" type="curve"/>
			<point x="98" y="320"/>
			<point x="72" y="362"/>
			<point x="72" y="427" type="curve" smooth="yes"/>
			<point x="72" y="432"/>
			<point x="72" y="436"/>
			<point x="72" y="441" type="curve" smooth="yes"/>
			<point x="76" y="505"/>
			<point x="131" y="556"/>
			<point x="192" y="558" type="curve" smooth="yes"/>
			<point x="194" y="558"/>
			<point x="195" y="558"/>
			<point x="197" y="558" type="curve" smooth="yes"/>
			<point x="200" y="558"/>
			<point x="202" y="558"/>
			<point x="204" y="558" type="curve" smooth="yes"/>
			<point x="207" y="570"/>
			<point x="210" y="582"/>
			<point x="212" y="594" type="curve" smooth="yes"/>
			<point x="217" y="617"/>
			<point x="227" y="618"/>
			<point x="250" y="618" type="curve" smooth="yes"/>
			<point x="251" y="618"/>
			<point x="252" y="618"/>
			<point x="253" y="618" type="curve" smooth="yes"/>
			<point x="254" y="618"/>
			<point x="255" y="618"/>
			<point x="255" y="618" type="curve" smooth="yes"/>
			<point x="274" y="618"/>
			<point x="281" y="618"/>
			<point x="283" y="601" type="curve" smooth="yes"/>
			<point x="283" y="600"/>
			<point x="283" y="599"/>
			<point x="283" y="597" type="curve" smooth="yes"/>
			<point x="283" y="597"/>
			<point x="283" y="596"/>
			<point x="283" y="595" type="curve" smooth="yes"/>
			<point x="282" y="584"/>
			<point x="279" y="564"/>
			<point x="273" y="538" type="curve"/>
			<point x="294" y="525"/>
			<point x="307" y="507"/>
			<point x="311" y="489" type="curve" smooth="yes"/>
			<point x="311" y="484"/>
			<point x="312" y="480"/>
			<point x="312" y="476" type="curve" smooth="yes"/>
			<point x="312" y="461"/>
			<point x="306" y="451"/>
			<point x="298" y="451" type="curve" smooth="yes"/>
			<point x="291" y="451"/>
			<point x="283" y="458"/>
			<point x="275" y="474" type="curve" smooth="yes"/>
			<point x="272" y="480"/>
			<point x="268" y="487"/>
			<point x="262" y="494" type="curve"/>
			<point x="249" y="445"/>
			<point x="231" y="384"/>
			<point x="211" y="321" type="curve"/>
			<point x="252" y="276"/>
			<point x="294" y="227"/>
			<point x="294" y="160" type="curve" smooth="yes"/>
			<point x="294" y="157"/>
			<point x="294" y="154"/>
			<point x="294" y="151" type="curve" smooth="yes"/>
			<point x="289" y="65"/>
			<point x="221" y="-12"/>
			<point x="126" y="-12" type="curve" smooth="yes"/>
			<point x="122" y="-12"/>
			<point x="118" y="-12"/>
			<point x="114" y="-11" type="curve" smooth="yes"/>
			<point x="104" y="-11"/>
			<point x="94" y="-10"/>
			<point x="85" y="-8" type="curve"/>
			<point x="68" y="-42"/>
			<point x="52" y="-63"/>
			<point x="41" y="-64" type="curve" smooth="yes"/>
			<point x="40" y="-64"/>
			<point x="40" y="-64"/>
			<point x="40" y="-64" type="curve" smooth="yes"/>
			<point x="40" y="-64"/>
			<point x="40" y="-64"/>
			<point x="40" y="-64" type="curve" smooth="yes"/>
			<point x="24" y="-63"/>
			<point x="20" y="-59"/>
			<point x="20" y="-52" type="curve" smooth="yes"/>
			<point x="20" y="-51"/>
			<point x="20" y="-51"/>
			<point x="20" y="-50" type="curve" smooth="yes"/>
			<point x="20" y="-48"/>
			<point x="20" y="-46"/>
			<point x="20" y="-43" type="curve" smooth="yes"/>
			<point x="20" y="-39"/>
			<point x="27" y="-20"/>
			<point x="37" y="10" type="curve"/>
			<point x="18" y="22"/>
			<point x="5" y="39"/>
			<point x="-8" y="62" type="curve" smooth="yes"/>
			<point x="-15" y="75"/>
			<point x="-18" y="88"/>
			<point x="-18" y="98" type="curve" smooth="yes"/>
			<point x="-18" y="109"/>
			<point x="-15" y="117"/>
			<point x="-8" y="117" type="curve" smooth="yes"/>
			<point x="-3" y="117"/>
			<point x="4" y="112"/>
			<point x="12" y="101" type="curve" smooth="yes"/>
			<point x="26" y="83"/>
			<point x="39" y="69"/>
			<point x="54" y="60" type="curve"/>
			<point x="74" y="120"/>
			<point x="101" y="200"/>
		</contour>
		<contour>
			<point x="195" y="520" type="curve"/>
			<point x="193" y="520"/>
			<point x="191" y="519"/>
			<point x="190" y="519" type="curve" smooth="yes"/>
			<point x="155" y="511"/>
			<point x="139" y="482"/>
			<point x="139" y="446" type="curve" smooth="yes"/>
			<point x="139" y="444"/>
			<point x="139" y="442"/>
			<point x="139" y="440" type="curve" smooth="yes"/>
			<point x="140" y="421"/>
			<point x="148" y="403"/>
			<point x="159" y="386" type="curve"/>
			<point x="172" y="431"/>
			<point x="184" y="476"/>
		</contour>
	</outline>
</glyph>
<glyph name="ampersand" format="2">
	<advance width="372"/>
	<unicode hex="0026"/>
	<outline>
		<contour>
			<point x="495" y="701" type="curve" smooth="yes"/>
			<point x="529" y="701"/>
			<point x="542" y="682"/>
			<point x="542" y="656" type="curve" smooth="yes"/>
			<point x="542" y="655"/>
			<point x="542" y="653"/>
			<point x="542" y="652" type="curve" smooth="yes"/>
			<point x="541" y="619"/>
			<point x="524" y="581"/>
			<point x="489" y="581" type="curve" smooth="yes"/>
			<point x="485" y="581"/>
			<point x="481" y="581"/>
			<point x="477" y="582" type="curve" smooth="yes"/>
			<point x="474" y="583"/>
			<point x="471" y="583"/>
			<point x="467" y="583" type="curve" smooth="yes"/>
			<point x="456" y="583"/>
			<point x="446" y="578"/>
			<point x="439" y="561" type="curve" smooth="yes"/>
			<point x="392" y="460"/>
			<point x="301" y="-2"/>
			<point x="136" y="-2" type="curve" smooth="yes"/>
			<point x="91" y="-2"/>
			<point x="67" y="35"/>
			<point x="56" y="64" type="curve"/>
			<point x="35" y="37"/>
			<point x="10" y="17"/>
			<point x="-8" y="17" type="curve" smooth="yes"/>
			<point x="-30" y="17"/>
			<point x="-30" y="22"/>
			<point x="-30" y="35" type="curve" smooth="yes"/>
			<point x="-30" y="49"/>
			<point x="-19" y="54"/>
			<point x="9" y="150" type="curve" smooth="yes"/>
			<point x="16" y="174"/>
			<point x="37" y="176"/>
			<point x="59" y="176" type="curve" smooth="yes"/>
			<point x="60" y="176"/>
			<point x="61" y="176"/>
			<point x="62" y="176" type="curve" smooth="yes"/>
			<point x="85" y="176"/>
			<point x="99" y="176"/>
			<point x="99" y="152" type="curve" smooth="yes"/>
			<point x="99" y="147"/>
			<point x="98" y="140"/>
			<point x="96" y="133" type="curve" smooth="yes"/>
			<point x="96" y="132"/>
			<point x="95" y="128"/>
			<point x="95" y="123" type="curve" smooth="yes"/>
			<point x="95" y="100"/>
			<point x="99" y="46"/>
			<point x="131" y="46" type="curve" smooth="yes"/>
			<point x="230" y="46"/>
			<point x="355" y="701"/>
		</contour>
	</outline>
</glyph>
<glyph name="quotesingle" format="2">
	<advance width="207"/>
	<unicode hex="0027"/>
	<outline>
		<contour>
			<point x="98" y="628" type="curve" smooth="yes"/>
			<point x="102" y="634"/>
			<point x="110" y="640"/>
			<point x="123" y="640" type="curve" smooth="yes"/>
			<point x="131" y="640"/>
			<point x="141" y="638"/>
			<point x="152" y="632" type="curve" smooth="yes"/>
			<point x="168" y="625"/>
			<point x="173" y="615"/>
			<point x="173" y="607" type="curve" smooth="yes"/>
			<point x="173" y="602"/>
			<point x="172" y="598"/>
			<point x="169" y="594" type="curve" smooth="yes"/>
			<point x="139" y="550"/>
			<point x="70" y="476"/>
			<point x="36" y="469" type="curve" smooth="yes"/>
			<point x="32" y="468"/>
			<point x="28" y="467"/>
			<point x="25" y="467" type="curve" smooth="yes"/>
			<point x="10" y="467"/>
			<point x="0" y="475"/>
			<point x="0" y="486" type="curve" smooth="yes"/>
			<point x="0" y="487"/>
			<point x="1" y="489"/>
			<point x="1" y="491" type="curve" smooth="yes"/>
			<point x="6" y="508"/>
			<point x="42" y="543"/>
		</contour>
	</outline>
</glyph>
<glyph name="parenleft" format="2">
	<advance width="257"/>
	<unicode hex="0028"/>
	<outline>
		<contour>
			<point x="228" y="-97" type="curve" smooth="yes"/>
			<point x="16" y="-93"/>
			<point x="-25" y="158"/>
			<point x="-25" y="262" type="curve" smooth="yes"/>
			<point x="-25" y="526"/>
			<point x="163" y="700"/>
			<point x="273" y="700" type="curve" smooth="yes"/>
			<point x="282" y="700"/>
			<point x="288" y="695"/>
			<point x="288" y="686" type="curve" smooth="yes"/>
			<point x="288" y="674"/>
			<point x="274" y="669"/>
			<point x="270" y="664" type="curve" smooth="yes"/>
			<point x="241" y="637"/>
			<point x="65" y="565"/>
			<point x="65" y="250" type="curve" smooth="yes"/>
			<point x="65" y="155"/>
			<point x="121" y="-42"/>
			<point x="243" y="-52" type="curve" smooth="yes"/>
			<point x="262" y="-54"/>
			<point x="271" y="-62"/>
			<point x="271" y="-71" type="curve" smooth="yes"/>
			<point x="271" y="-83"/>
			<point x="255" y="-97"/>
			<point x="230" y="-97" type="curve" smooth="yes"/>
			<point x="229" y="-97"/>
			<point x="229" y="-97"/>
		</contour>
	</outline>
</glyph>
<glyph name="plus" format="2">
	<advance width="317"/>
	<unicode hex="002B"/>
	<outline>
		<contour>
			<point x="255" y="279" type="curve" smooth="yes"/>
			<point x="257" y="280"/>
			<point x="259" y="280"/>
			<point x="261" y="280" type="curve" smooth="yes"/>
			<point x="271" y="280"/>
			<point x="284" y="272"/>
			<point x="293" y="254" type="curve" smooth="yes"/>
			<point x="297" y="246"/>
			<point x="299" y="240"/>
			<point x="299" y="235" type="curve" smooth="yes"/>
			<point x="299" y="223"/>
			<point x="292" y="216"/>
			<point x="284" y="214" type="curve" smooth="yes"/>
			<point x="261" y="206"/>
			<point x="214" y="200"/>
			<point x="166" y="199" type="curve"/>
			<point x="159" y="186"/>
			<point x="151" y="173"/>
			<point x="144" y="161" type="curve" smooth="yes"/>
			<point x="117" y="119"/>
			<point x="90" y="87"/>
			<point x="75" y="87" type="curve" smooth="yes"/>
			<point x="53" y="87"/>
			<point x="53" y="93"/>
			<point x="53" y="106" type="curve" smooth="yes"/>
			<point x="53" y="113"/>
			<point x="70" y="151"/>
			<point x="89" y="200" type="curve"/>
			<point x="62" y="202"/>
			<point x="41" y="206"/>
			<point x="31" y="213" type="curve" smooth="yes"/>
			<point x="20" y="220"/>
			<point x="14" y="230"/>
			<point x="14" y="238" type="curve" smooth="yes"/>
			<point x="14" y="244"/>
			<point x="17" y="250"/>
			<point x="24" y="253" type="curve" smooth="yes"/>
			<point x="29" y="255"/>
			<point x="36" y="256"/>
			<point x="46" y="256" type="curve" smooth="yes"/>
			<point x="61" y="256"/>
			<point x="82" y="254"/>
			<point x="108" y="254" type="curve" smooth="yes"/>
			<point x="108" y="254"/>
			<point x="109" y="254"/>
			<point x="109" y="254" type="curve"/>
			<point x="120" y="283"/>
			<point x="130" y="314"/>
			<point x="138" y="342" type="curve" smooth="yes"/>
			<point x="145" y="365"/>
			<point x="166" y="366"/>
			<point x="188" y="366" type="curve" smooth="yes"/>
			<point x="189" y="366"/>
			<point x="189" y="366"/>
			<point x="190" y="366" type="curve" smooth="yes"/>
			<point x="213" y="366"/>
			<point x="228" y="366"/>
			<point x="228" y="343" type="curve" smooth="yes"/>
			<point x="228" y="329"/>
			<point x="217" y="299"/>
			<point x="200" y="264" type="curve"/>
			<point x="218" y="267"/>
			<point x="236" y="272"/>
		</contour>
	</outline>
</glyph>
<glyph name="comma" format="2">
	<advance width="223"/>
	<unicode hex="002C"/>
	<outline>
		<contour>
			<point x="44" y="73" type="curve" smooth="yes"/>
			<point x="46" y="82"/>
			<point x="56" y="96"/>
			<point x="84" y="96" type="curve" smooth="yes"/>
			<point x="87" y="96"/>
			<point x="90" y="96"/>
			<point x="94" y="96" type="curve" smooth="yes"/>
			<point x="116" y="93"/>
			<point x="123" y="82"/>
			<point x="123" y="71" type="curve" smooth="yes"/>
			<point x="123" y="69"/>
			<point x="123" y="67"/>
			<point x="123" y="66" type="curve" smooth="yes"/>
			<point x="109" y="13"/>
			<point x="59" y="-64"/>
			<point x="29" y="-83" type="curve" smooth="yes"/>
			<point x="21" y="-88"/>
			<point x="14" y="-90"/>
			<point x="8" y="-90" type="curve" smooth="yes"/>
			<point x="-3" y="-90"/>
			<point x="-11" y="-84"/>
			<point x="-11" y="-74" type="curve" smooth="yes"/>
			<point x="-11" y="-74"/>
			<point x="-11" y="-74"/>
			<point x="-11" y="-74" type="curve" smooth="yes"/>
			<point x="-11" y="-56"/>
			<point x="21" y="-25"/>
		</contour>
	</outline>
</glyph>
<glyph name="period" format="2">
	<advance width="200"/>
	<unicode hex="002E"/>
	<outline>
		<contour>
			<point x="0" y="18" type="curve" smooth="yes"/>
			<point x="0" y="32"/>
			<point x="7" y="45"/>
			<point x="12" y="71" type="curve" smooth="yes"/>
			<point x="17" y="95"/>
			<point x="40" y="97"/>
			<point x="62" y="97" type="curve" smooth="yes"/>
			<point x="63" y="97"/>
			<point x="65" y="97"/>
			<point x="66" y="97" type="curve" smooth="yes"/>
			<point x="88" y="97"/>
			<point x="102" y="97"/>
			<point x="102" y="73" type="curve" smooth="yes"/>
			<point x="102" y="29"/>
			<point x="59" y="0"/>
			<point x="22" y="0" type="curve" smooth="yes"/>
			<point x="2" y="0"/>
			<point x="0" y="6"/>
		</contour>
	</outline>
</glyph>
<glyph name="slash" format="2">
	<advance width="244"/>
	<unicode hex="002F"/>
	<outline>
		<contour>
			<point x="323" y="698" type="curve" smooth="yes"/>
			<point x="326" y="699"/>
			<point x="328" y="699"/>
			<point x="331" y="699" type="curve" smooth="yes"/>
			<point x="339" y="699"/>
			<point x="346" y="694"/>
			<point x="346" y="687" type="curve" smooth="yes"/>
			<point x="346" y="685"/>
			<point x="345" y="682"/>
			<point x="344" y="680" type="curve" smooth="yes"/>
			<point x="312" y="614"/>
			<point x="147" y="185"/>
			<point x="70" y="-75" type="curve" smooth="yes"/>
			<point x="65" y="-92"/>
			<point x="51" y="-96"/>
			<point x="35" y="-96" type="curve" smooth="yes"/>
			<point x="29" y="-96"/>
			<point x="24" y="-95"/>
			<point x="18" y="-95" type="curve" smooth="yes"/>
			<point x="17" y="-95"/>
			<point x="17" y="-95"/>
			<point x="16" y="-94" type="curve" smooth="yes"/>
			<point x="-5" y="-93"/>
			<point x="-20" y="-91"/>
			<point x="-20" y="-72" type="curve" smooth="yes"/>
			<point x="-20" y="12"/>
			<point x="278" y="681"/>
		</contour>
	</outline>
</glyph>
<glyph name="three" format="2">
	<advance width="451"/>
	<unicode hex="0033"/>
	<outline>
		<contour>
			<point x="198" y="295" type="curve" smooth="yes"/>
			<point x="197" y="295"/>
			<point x="195" y="295"/>
			<point x="194" y="295" type="curve" smooth="yes"/>
			<point x="185" y="293"/>
			<point x="176" y="292"/>
			<point x="167" y="290" type="curve" smooth="yes"/>
			<point x="164" y="290"/>
			<point x="161" y="290"/>
			<point x="159" y="290" type="curve" smooth="yes"/>
			<point x="145" y="290"/>
			<point x="139" y="296"/>
			<point x="139" y="304" type="curve" smooth="yes"/>
			<point x="139" y="311"/>
			<point x="145" y="318"/>
			<point x="156" y="321" type="curve" smooth="yes"/>
			<point x="216" y="334"/>
			<point x="268" y="376"/>
			<point x="273" y="436" type="curve" smooth="yes"/>
			<point x="273" y="439"/>
			<point x="273" y="442"/>
			<point x="273" y="444" type="curve" smooth="yes"/>
			<point x="273" y="483"/>
			<point x="250" y="508"/>
			<point x="219" y="508" type="curve" smooth="yes"/>
			<point x="215" y="508"/>
			<point x="212" y="508"/>
			<point x="209" y="508" type="curve" smooth="yes"/>
			<point x="171" y="502"/>
			<point x="189" y="455"/>
			<point x="129" y="445" type="curve" smooth="yes"/>
			<point x="126" y="445"/>
			<point x="124" y="445"/>
			<point x="121" y="445" type="curve" smooth="yes"/>
			<point x="105" y="445"/>
			<point x="94" y="453"/>
			<point x="90" y="466" type="curve" smooth="yes"/>
			<point x="89" y="469"/>
			<point x="89" y="472"/>
			<point x="89" y="475" type="curve" smooth="yes"/>
			<point x="89" y="505"/>
			<point x="130" y="550"/>
			<point x="225" y="550" type="curve" smooth="yes"/>
			<point x="288" y="550"/>
			<point x="359" y="522"/>
			<point x="359" y="450" type="curve" smooth="yes"/>
			<point x="359" y="445"/>
			<point x="359" y="441"/>
			<point x="358" y="436" type="curve" smooth="yes"/>
			<point x="354" y="385"/>
			<point x="331" y="352"/>
			<point x="299" y="331" type="curve"/>
			<point x="347" y="309"/>
			<point x="371" y="263"/>
			<point x="371" y="204" type="curve" smooth="yes"/>
			<point x="371" y="132"/>
			<point x="333" y="50"/>
			<point x="213" y="10" type="curve" smooth="yes"/>
			<point x="187" y="1"/>
			<point x="158" y="-4"/>
			<point x="125" y="-7" type="curve" smooth="yes"/>
			<point x="116" y="-7"/>
			<point x="108" y="-8"/>
			<point x="100" y="-8" type="curve" smooth="yes"/>
			<point x="48" y="-8"/>
			<point x="16" y="6"/>
			<point x="-7" y="34" type="curve" smooth="yes"/>
			<point x="-12" y="41"/>
			<point x="-16" y="50"/>
			<point x="-16" y="60" type="curve" smooth="yes"/>
			<point x="-16" y="70"/>
			<point x="-12" y="80"/>
			<point x="-4" y="87" type="curve" smooth="yes"/>
			<point x="5" y="95"/>
			<point x="17" y="99"/>
			<point x="29" y="99" type="curve" smooth="yes"/>
			<point x="40" y="99"/>
			<point x="51" y="95"/>
			<point x="58" y="88" type="curve" smooth="yes"/>
			<point x="74" y="72"/>
			<point x="72" y="35"/>
			<point x="110" y="35" type="curve" smooth="yes"/>
			<point x="111" y="35"/>
			<point x="113" y="35"/>
			<point x="114" y="36" type="curve" smooth="yes"/>
			<point x="138" y="37"/>
			<point x="150" y="38"/>
			<point x="177" y="49" type="curve" smooth="yes"/>
			<point x="246" y="78"/>
			<point x="280" y="137"/>
			<point x="285" y="197" type="curve" smooth="yes"/>
			<point x="285" y="201"/>
			<point x="285" y="205"/>
			<point x="285" y="208" type="curve" smooth="yes"/>
			<point x="285" y="266"/>
			<point x="248" y="296"/>
			<point x="210" y="296" type="curve" smooth="yes"/>
			<point x="206" y="296"/>
			<point x="202" y="296"/>
		</contour>
	</outline>
</glyph>
<glyph name="four" format="2">
	<advance width="381"/>
	<unicode hex="0034"/>
	<outline>
		<contour>
			<point x="335" y="77" type="curve" smooth="yes"/>
			<point x="345" y="71"/>
			<point x="348" y="64"/>
			<point x="348" y="56" type="curve" smooth="yes"/>
			<point x="348" y="48"/>
			<point x="344" y="39"/>
			<point x="340" y="32" type="curve" smooth="yes"/>
			<point x="330" y="15"/>
			<point x="320" y="0"/>
			<point x="302" y="0" type="curve" smooth="yes"/>
			<point x="299" y="0"/>
			<point x="297" y="1"/>
			<point x="294" y="1" type="curve" smooth="yes"/>
			<point x="278" y="4"/>
			<point x="262" y="7"/>
			<point x="245" y="10" type="curve"/>
			<point x="201" y="-80"/>
			<point x="153" y="-159"/>
			<point x="128" y="-159" type="curve" smooth="yes"/>
			<point x="107" y="-159"/>
			<point x="107" y="-152"/>
			<point x="107" y="-140" type="curve" smooth="yes"/>
			<point x="107" y="-133"/>
			<point x="136" y="-63"/>
			<point x="170" y="20" type="curve"/>
			<point x="107" y="26"/>
			<point x="47" y="29"/>
			<point x="11" y="29" type="curve" smooth="yes"/>
			<point x="7" y="29"/>
			<point x="3" y="29"/>
			<point x="0" y="29" type="curve" smooth="yes"/>
			<point x="-1" y="29"/>
			<point x="-2" y="29"/>
			<point x="-3" y="29" type="curve" smooth="yes"/>
			<point x="-47" y="29"/>
			<point x="-65" y="48"/>
			<point x="-65" y="69" type="curve" smooth="yes"/>
			<point x="-65" y="83"/>
			<point x="-57" y="98"/>
			<point x="-44" y="108" type="curve" smooth="yes"/>
			<point x="118" y="235"/>
			<point x="331" y="541"/>
			<point x="352" y="548" type="curve" smooth="yes"/>
			<point x="356" y="549"/>
			<point x="359" y="550"/>
			<point x="362" y="550" type="curve" smooth="yes"/>
			<point x="370" y="550"/>
			<point x="373" y="545"/>
			<point x="373" y="536" type="curve" smooth="yes"/>
			<point x="373" y="470"/>
			<point x="154" y="168"/>
			<point x="36" y="78" type="curve"/>
			<point x="85" y="79"/>
			<point x="143" y="82"/>
			<point x="195" y="84" type="curve"/>
			<point x="220" y="148"/>
			<point x="244" y="212"/>
			<point x="257" y="256" type="curve" smooth="yes"/>
			<point x="264" y="279"/>
			<point x="285" y="280"/>
			<point x="307" y="280" type="curve" smooth="yes"/>
			<point x="308" y="280"/>
			<point x="308" y="280"/>
			<point x="309" y="280" type="curve" smooth="yes"/>
			<point x="332" y="280"/>
			<point x="347" y="280"/>
			<point x="347" y="257" type="curve" smooth="yes"/>
			<point x="347" y="243"/>
			<point x="318" y="167"/>
			<point x="281" y="85" type="curve"/>
			<point x="307" y="84"/>
			<point x="326" y="82"/>
		</contour>
	</outline>
</glyph>
<glyph name="five" format="2">
	<advance width="451"/>
	<unicode hex="0035"/>
	<outline>
		<contour>
			<point x="58" y="88" type="curve" smooth="yes"/>
			<point x="74" y="72"/>
			<point x="72" y="35"/>
			<point x="110" y="35" type="curve" smooth="yes"/>
			<point x="111" y="35"/>
			<point x="113" y="35"/>
			<point x="114" y="36" type="curve" smooth="yes"/>
			<point x="138" y="37"/>
			<point x="150" y="38"/>
			<point x="177" y="49" type="curve" smooth="yes"/>
			<point x="246" y="78"/>
			<point x="280" y="145"/>
			<point x="285" y="205" type="curve" smooth="yes"/>
			<point x="285" y="208"/>
			<point x="285" y="212"/>
			<point x="285" y="215" type="curve" smooth="yes"/>
			<point x="285" y="276"/>
			<point x="238" y="309"/>
			<point x="196" y="309" type="curve" smooth="yes"/>
			<point x="166" y="309"/>
			<point x="134" y="291"/>
			<point x="113" y="275" type="curve" smooth="yes"/>
			<point x="110" y="272"/>
			<point x="105" y="269"/>
			<point x="100" y="269" type="curve" smooth="yes"/>
			<point x="100" y="269"/>
			<point x="100" y="269"/>
			<point x="100" y="269" type="curve" smooth="yes"/>
			<point x="82" y="270"/>
			<point x="78" y="276"/>
			<point x="78" y="285" type="curve" smooth="yes"/>
			<point x="78" y="286"/>
			<point x="78" y="287"/>
			<point x="79" y="288" type="curve" smooth="yes"/>
			<point x="79" y="303"/>
			<point x="135" y="425"/>
			<point x="162" y="523" type="curve" smooth="yes"/>
			<point x="169" y="546"/>
			<point x="190" y="548"/>
			<point x="212" y="548" type="curve" smooth="yes"/>
			<point x="213" y="548"/>
			<point x="213" y="548"/>
			<point x="214" y="548" type="curve" smooth="yes"/>
			<point x="282" y="548"/>
			<point x="321" y="526"/>
			<point x="362" y="526" type="curve" smooth="yes"/>
			<point x="375" y="526"/>
			<point x="388" y="528"/>
			<point x="403" y="534" type="curve" smooth="yes"/>
			<point x="416" y="539"/>
			<point x="425" y="541"/>
			<point x="433" y="541" type="curve" smooth="yes"/>
			<point x="445" y="541"/>
			<point x="451" y="536"/>
			<point x="451" y="528" type="curve" smooth="yes"/>
			<point x="451" y="517"/>
			<point x="437" y="500"/>
			<point x="410" y="494" type="curve" smooth="yes"/>
			<point x="382" y="488"/>
			<point x="360" y="486"/>
			<point x="341" y="486" type="curve" smooth="yes"/>
			<point x="301" y="486"/>
			<point x="276" y="496"/>
			<point x="247" y="496" type="curve" smooth="yes"/>
			<point x="244" y="496"/>
			<point x="242" y="496"/>
			<point x="239" y="495" type="curve"/>
			<point x="216" y="445"/>
			<point x="180" y="367"/>
			<point x="167" y="346" type="curve"/>
			<point x="184" y="353"/>
			<point x="203" y="357"/>
			<point x="221" y="357" type="curve" smooth="yes"/>
			<point x="221" y="357" type="line" smooth="yes"/>
			<point x="318" y="357"/>
			<point x="371" y="296"/>
			<point x="371" y="212" type="curve" smooth="yes"/>
			<point x="371" y="211"/>
			<point x="371" y="210"/>
			<point x="371" y="210" type="curve" smooth="yes"/>
			<point x="370" y="140"/>
			<point x="332" y="50"/>
			<point x="213" y="10" type="curve" smooth="yes"/>
			<point x="187" y="1"/>
			<point x="158" y="-4"/>
			<point x="125" y="-7" type="curve" smooth="yes"/>
			<point x="116" y="-7"/>
			<point x="108" y="-8"/>
			<point x="100" y="-8" type="curve" smooth="yes"/>
			<point x="48" y="-8"/>
			<point x="16" y="6"/>
			<point x="-7" y="34" type="curve" smooth="yes"/>
			<point x="-12" y="41"/>
			<point x="-16" y="50"/>
			<point x="-16" y="60" type="curve" smooth="yes"/>
			<point x="-16" y="70"/>
			<point x="-12" y="80"/>
			<point x="-4" y="87" type="curve" smooth="yes"/>
			<point x="5" y="95"/>
			<point x="17" y="99"/>
			<point x="29" y="99" type="curve" smooth="yes"/>
			<point x="40" y="99"/>
			<point x="51" y="95"/>
		</contour>
	</outline>
</glyph>
<glyph name="six" format="2">
	<advance width="429"/>
	<unicode hex="0036"/>
	<outline>
		<contour>
			<point x="142" y="4" type="curve" smooth="yes"/>
			<point x="36" y="30"/>
			<point x="0" y="121"/>
			<point x="0" y="211" type="curve" smooth="yes"/>
			<point x="0" y="221"/>
			<point x="1" y="231"/>
			<point x="2" y="241" type="curve" smooth="yes"/>
			<point x="3" y="253"/>
			<point x="4" y="264"/>
			<point x="6" y="275" type="curve" smooth="yes"/>
			<point x="51" y="523"/>
			<point x="228" y="642"/>
			<point x="340" y="642" type="curve" smooth="yes"/>
			<point x="344" y="642"/>
			<point x="349" y="642"/>
			<point x="353" y="641" type="curve" smooth="yes"/>
			<point x="357" y="641"/>
			<point x="360" y="641"/>
			<point x="364" y="640" type="curve" smooth="yes"/>
			<point x="371" y="639"/>
			<point x="376" y="634"/>
			<point x="376" y="627" type="curve" smooth="yes"/>
			<point x="376" y="626"/>
			<point x="376" y="626"/>
			<point x="376" y="625" type="curve" smooth="yes"/>
			<point x="376" y="625"/>
			<point x="376" y="624"/>
			<point x="376" y="623" type="curve" smooth="yes"/>
			<point x="374" y="612"/>
			<point x="360" y="608"/>
			<point x="354" y="605" type="curve" smooth="yes"/>
			<point x="289" y="571"/>
			<point x="100" y="529"/>
			<point x="82" y="211" type="curve" smooth="yes"/>
			<point x="82" y="205"/>
			<point x="82" y="199"/>
			<point x="82" y="193" type="curve" smooth="yes"/>
			<point x="82" y="120"/>
			<point x="108" y="61"/>
			<point x="167" y="45" type="curve" smooth="yes"/>
			<point x="173" y="43"/>
			<point x="180" y="42"/>
			<point x="186" y="42" type="curve" smooth="yes"/>
			<point x="189" y="42"/>
			<point x="192" y="41"/>
			<point x="194" y="41" type="curve" smooth="yes"/>
			<point x="258" y="41"/>
			<point x="296" y="106"/>
			<point x="308" y="170" type="curve" smooth="yes"/>
			<point x="310" y="179"/>
			<point x="311" y="189"/>
			<point x="312" y="199" type="curve" smooth="yes"/>
			<point x="313" y="206"/>
			<point x="313" y="213"/>
			<point x="313" y="221" type="curve" smooth="yes"/>
			<point x="313" y="265"/>
			<point x="300" y="307"/>
			<point x="254" y="311" type="curve" smooth="yes"/>
			<point x="251" y="312"/>
			<point x="249" y="312"/>
			<point x="246" y="312" type="curve" smooth="yes"/>
			<point x="234" y="312"/>
			<point x="220" y="309"/>
			<point x="203" y="304" type="curve" smooth="yes"/>
			<point x="195" y="301"/>
			<point x="188" y="300"/>
			<point x="183" y="300" type="curve" smooth="yes"/>
			<point x="181" y="300"/>
			<point x="180" y="300"/>
			<point x="179" y="300" type="curve" smooth="yes"/>
			<point x="164" y="301"/>
			<point x="158" y="311"/>
			<point x="158" y="322" type="curve" smooth="yes"/>
			<point x="158" y="323"/>
			<point x="158" y="324"/>
			<point x="158" y="325" type="curve" smooth="yes"/>
			<point x="159" y="336"/>
			<point x="167" y="348"/>
			<point x="180" y="351" type="curve" smooth="yes"/>
			<point x="203" y="356"/>
			<point x="224" y="359"/>
			<point x="243" y="359" type="curve" smooth="yes"/>
			<point x="249" y="359"/>
			<point x="254" y="359"/>
			<point x="260" y="358" type="curve" smooth="yes"/>
			<point x="349" y="350"/>
			<point x="383" y="279"/>
			<point x="383" y="206" type="curve" smooth="yes"/>
			<point x="383" y="199"/>
			<point x="383" y="192"/>
			<point x="382" y="185" type="curve" smooth="yes"/>
			<point x="382" y="183"/>
			<point x="382" y="181"/>
			<point x="382" y="179" type="curve" smooth="yes"/>
			<point x="371" y="80"/>
			<point x="293" y="-2"/>
			<point x="190" y="-2" type="curve" smooth="yes"/>
			<point x="185" y="-2"/>
			<point x="179" y="-2"/>
			<point x="173" y="-1" type="curve" smooth="yes"/>
			<point x="163" y="0"/>
			<point x="153" y="1"/>
		</contour>
	</outline>
</glyph>
<glyph name="eight" format="2">
	<advance width="381"/>
	<unicode hex="0038"/>
	<outline>
		<contour>
			<point x="154" y="272" type="curve"/>
			<point x="109" y="235"/>
			<point x="72" y="201"/>
			<point x="61" y="162" type="curve" smooth="yes"/>
			<point x="57" y="150"/>
			<point x="56" y="138"/>
			<point x="56" y="126" type="curve" smooth="yes"/>
			<point x="56" y="74"/>
			<point x="93" y="42"/>
			<point x="126" y="42" type="curve" smooth="yes"/>
			<point x="126" y="42"/>
			<point x="127" y="42"/>
			<point x="127" y="42" type="curve" smooth="yes"/>
			<point x="181" y="44"/>
			<point x="213" y="105"/>
			<point x="213" y="158" type="curve" smooth="yes"/>
			<point x="213" y="205"/>
			<point x="185" y="238"/>
		</contour>
		<contour>
			<point x="114" y="317" type="curve"/>
			<point x="91" y="347"/>
			<point x="72" y="382"/>
			<point x="72" y="430" type="curve" smooth="yes"/>
			<point x="72" y="434"/>
			<point x="72" y="438"/>
			<point x="72" y="441" type="curve" smooth="yes"/>
			<point x="76" y="505"/>
			<point x="131" y="556"/>
			<point x="192" y="558" type="curve" smooth="yes"/>
			<point x="194" y="558"/>
			<point x="195" y="558"/>
			<point x="197" y="558" type="curve" smooth="yes"/>
			<point x="262" y="558"/>
			<point x="305" y="523"/>
			<point x="311" y="489" type="curve" smooth="yes"/>
			<point x="311" y="486"/>
			<point x="311" y="484"/>
			<point x="311" y="482" type="curve"/>
			<point x="316" y="487"/>
			<point x="321" y="493"/>
			<point x="325" y="499" type="curve" smooth="yes"/>
			<point x="338" y="516"/>
			<point x="348" y="523"/>
			<point x="355" y="523" type="curve" smooth="yes"/>
			<point x="364" y="523"/>
			<point x="368" y="514"/>
			<point x="368" y="503" type="curve" smooth="yes"/>
			<point x="368" y="495"/>
			<point x="366" y="487"/>
			<point x="362" y="481" type="curve" smooth="yes"/>
			<point x="323" y="413"/>
			<point x="265" y="362"/>
			<point x="210" y="317" type="curve"/>
			<point x="250" y="273"/>
			<point x="294" y="228"/>
			<point x="294" y="160" type="curve" smooth="yes"/>
			<point x="294" y="157"/>
			<point x="294" y="154"/>
			<point x="294" y="151" type="curve" smooth="yes"/>
			<point x="288" y="64"/>
			<point x="211" y="-11"/>
			<point x="121" y="-11" type="curve" smooth="yes"/>
			<point x="119" y="-11"/>
			<point x="117" y="-11"/>
			<point x="114" y="-11" type="curve" smooth="yes"/>
			<point x="64" y="-9"/>
			<point x="-2" y="33"/>
			<point x="-2" y="125" type="curve" smooth="yes"/>
			<point x="-2" y="137"/>
			<point x="-1" y="149"/>
			<point x="1" y="163" type="curve" smooth="yes"/>
			<point x="12" y="227"/>
			<point x="58" y="273"/>
		</contour>
		<contour>
			<point x="288" y="456" type="curve"/>
			<point x="284" y="459"/>
			<point x="279" y="465"/>
			<point x="275" y="474" type="curve" smooth="yes"/>
			<point x="266" y="493"/>
			<point x="243" y="521"/>
			<point x="206" y="521" type="curve" smooth="yes"/>
			<point x="201" y="521"/>
			<point x="195" y="520"/>
			<point x="190" y="519" type="curve" smooth="yes"/>
			<point x="155" y="511"/>
			<point x="139" y="482"/>
			<point x="139" y="446" type="curve" smooth="yes"/>
			<point x="139" y="444"/>
			<point x="139" y="442"/>
			<point x="139" y="440" type="curve" smooth="yes"/>
			<point x="141" y="410"/>
			<point x="154" y="384"/>
			<point x="172" y="360" type="curve"/>
			<point x="212" y="389"/>
			<point x="252" y="419"/>
		</contour>
	</outline>
</glyph>
<glyph name="colon" format="2">
	<advance width="223"/>
	<unicode hex="003A"/>
	<outline>
		<contour>
			<point x="32" y="200" type="curve" smooth="yes"/>
			<point x="32" y="215"/>
			<point x="39" y="227"/>
			<point x="45" y="254" type="curve" smooth="yes"/>
			<point x="49" y="278"/>
			<point x="72" y="279"/>
			<point x="95" y="279" type="curve" smooth="yes"/>
			<point x="96" y="279"/>
			<point x="97" y="279"/>
			<point x="98" y="279" type="curve" smooth="yes"/>
			<point x="120" y="279"/>
			<point x="135" y="279"/>
			<point x="135" y="256" type="curve" smooth="yes"/>
			<point x="135" y="211"/>
			<point x="91" y="183"/>
			<point x="55" y="183" type="curve" smooth="yes"/>
			<point x="35" y="183"/>
			<point x="32" y="188"/>
		</contour>
		<contour>
			<point x="0" y="18" type="curve" smooth="yes"/>
			<point x="0" y="32"/>
			<point x="7" y="45"/>
			<point x="12" y="71" type="curve" smooth="yes"/>
			<point x="17" y="95"/>
			<point x="40" y="97"/>
			<point x="62" y="97" type="curve" smooth="yes"/>
			<point x="63" y="97"/>
			<point x="65" y="97"/>
			<point x="66" y="97" type="curve" smooth="yes"/>
			<point x="88" y="97"/>
			<point x="102" y="97"/>
			<point x="102" y="73" type="curve" smooth="yes"/>
			<point x="102" y="29"/>
			<point x="59" y="0"/>
			<point x="22" y="0" type="curve" smooth="yes"/>
			<point x="2" y="0"/>
			<point x="0" y="6"/>
		</contour>
	</outline>
</glyph>
<glyph name="question" format="2">
	<advance width="225"/>
	<unicode hex="003F"/>
	<outline>
		<contour>
			<point x="-13" y="18" type="curve" smooth="yes"/>
			<point x="-13" y="32"/>
			<point x="-7" y="45"/>
			<point x="-1" y="71" type="curve" smooth="yes"/>
			<point x="4" y="95"/>
			<point x="27" y="97"/>
			<point x="49" y="97" type="curve" smooth="yes"/>
			<point x="50" y="97"/>
			<point x="51" y="97"/>
			<point x="52" y="97" type="curve" smooth="yes"/>
			<point x="75" y="97"/>
			<point x="89" y="97"/>
			<point x="89" y="73" type="curve" smooth="yes"/>
			<point x="89" y="29"/>
			<point x="46" y="0"/>
			<point x="9" y="0" type="curve" smooth="yes"/>
			<point x="-11" y="0"/>
			<point x="-13" y="6"/>
		</contour>
		<contour>
			<point x="38" y="240" type="curve" smooth="yes"/>
			<point x="66" y="336"/>
			<point x="181" y="420"/>
			<point x="196" y="519" type="curve" smooth="yes"/>
			<point x="197" y="525"/>
			<point x="197" y="532"/>
			<point x="197" y="538" type="curve" smooth="yes"/>
			<point x="197" y="591"/>
			<point x="159" y="613"/>
			<point x="125" y="613" type="curve" smooth="yes"/>
			<point x="122" y="613"/>
			<point x="120" y="612"/>
			<point x="117" y="612" type="curve" smooth="yes"/>
			<point x="87" y="609"/>
			<point x="55" y="591"/>
			<point x="35" y="548" type="curve" smooth="yes"/>
			<point x="24" y="525"/>
			<point x="10" y="516"/>
			<point x="-2" y="516" type="curve" smooth="yes"/>
			<point x="-15" y="516"/>
			<point x="-25" y="528"/>
			<point x="-25" y="546" type="curve" smooth="yes"/>
			<point x="-25" y="548"/>
			<point x="-25" y="551"/>
			<point x="-24" y="553" type="curve" smooth="yes"/>
			<point x="-17" y="609"/>
			<point x="42" y="660"/>
			<point x="135" y="667" type="curve" smooth="yes"/>
			<point x="140" y="667"/>
			<point x="145" y="667"/>
			<point x="150" y="667" type="curve" smooth="yes"/>
			<point x="233" y="667"/>
			<point x="293" y="614"/>
			<point x="293" y="547" type="curve" smooth="yes"/>
			<point x="293" y="546"/>
			<point x="293" y="544"/>
			<point x="293" y="543" type="curve" smooth="yes"/>
			<point x="288" y="403"/>
			<point x="151" y="358"/>
			<point x="86" y="205" type="curve" smooth="yes"/>
			<point x="81" y="193"/>
			<point x="67" y="184"/>
			<point x="55" y="184" type="curve" smooth="yes"/>
			<point x="43" y="184"/>
			<point x="33" y="192"/>
			<point x="33" y="212" type="curve" smooth="yes"/>
			<point x="33" y="220"/>
			<point x="35" y="229"/>
		</contour>
	</outline>
</glyph>
<glyph name="at" format="2">
	<advance width="706"/>
	<unicode hex="0040"/>
	<outline>
		<contour>
			<point x="70" y="89" type="curve" smooth="yes"/>
			<point x="123" y="89"/>
			<point x="190" y="58"/>
			<point x="246" y="58" type="curve" smooth="yes"/>
			<point x="259" y="58"/>
			<point x="273" y="60"/>
			<point x="285" y="65" type="curve" smooth="yes"/>
			<point x="306" y="73"/>
			<point x="334" y="112"/>
			<point x="334" y="177" type="curve" smooth="yes"/>
			<point x="334" y="213"/>
			<point x="372" y="223"/>
			<point x="412" y="223" type="curve" smooth="yes"/>
			<point x="423" y="223"/>
			<point x="435" y="216"/>
			<point x="435" y="201" type="curve" smooth="yes"/>
			<point x="435" y="177"/>
			<point x="431" y="155"/>
			<point x="424" y="135" type="curve" smooth="yes"/>
			<point x="424" y="133"/>
			<point x="424" y="130"/>
			<point x="424" y="126" type="curve" smooth="yes"/>
			<point x="424" y="102"/>
			<point x="427" y="48"/>
			<point x="460" y="48" type="curve" smooth="yes"/>
			<point x="559" y="48"/>
			<point x="683" y="703"/>
			<point x="824" y="703" type="curve" smooth="yes"/>
			<point x="858" y="703"/>
			<point x="870" y="684"/>
			<point x="870" y="658" type="curve" smooth="yes"/>
			<point x="870" y="657"/>
			<point x="870" y="656"/>
			<point x="870" y="654" type="curve" smooth="yes"/>
			<point x="869" y="621"/>
			<point x="853" y="583"/>
			<point x="817" y="583" type="curve" smooth="yes"/>
			<point x="814" y="583"/>
			<point x="810" y="584"/>
			<point x="806" y="584" type="curve" smooth="yes"/>
			<point x="802" y="585"/>
			<point x="799" y="585"/>
			<point x="796" y="585" type="curve" smooth="yes"/>
			<point x="784" y="585"/>
			<point x="774" y="580"/>
			<point x="767" y="563" type="curve" smooth="yes"/>
			<point x="721" y="462"/>
			<point x="629" y="0"/>
			<point x="464" y="0" type="curve" smooth="yes"/>
			<point x="418" y="0"/>
			<point x="394" y="40"/>
			<point x="383" y="68" type="curve"/>
			<point x="359" y="44"/>
			<point x="329" y="26"/>
			<point x="297" y="19" type="curve" smooth="yes"/>
			<point x="282" y="15"/>
			<point x="268" y="14"/>
			<point x="255" y="14" type="curve" smooth="yes"/>
			<point x="201" y="14"/>
			<point x="161" y="38"/>
			<point x="116" y="38" type="curve" smooth="yes"/>
			<point x="78" y="38"/>
			<point x="70" y="19"/>
			<point x="70" y="-2" type="curve" smooth="yes"/>
			<point x="70" y="-18"/>
			<point x="75" y="-36"/>
			<point x="75" y="-47" type="curve" smooth="yes"/>
			<point x="75" y="-59"/>
			<point x="75" y="-66"/>
			<point x="53" y="-66" type="curve" smooth="yes"/>
			<point x="16" y="-66"/>
			<point x="-6" y="-27"/>
			<point x="-8" y="8" type="curve" smooth="yes"/>
			<point x="-8" y="11"/>
			<point x="-8" y="15"/>
			<point x="-8" y="18" type="curve" smooth="yes"/>
			<point x="-8" y="54"/>
			<point x="2" y="89"/>
		</contour>
	</outline>
</glyph>
<glyph name="bracketleft" format="2">
	<advance width="165"/>
	<unicode hex="005B"/>
	<outline>
		<contour>
			<point x="119" y="661" type="curve" smooth="yes"/>
			<point x="121" y="663"/>
			<point x="124" y="664"/>
			<point x="126" y="665" type="curve" smooth="yes"/>
			<point x="128" y="666"/>
			<point x="130" y="666"/>
			<point x="132" y="666" type="curve" smooth="yes"/>
			<point x="133" y="666"/>
			<point x="133" y="666"/>
			<point x="133" y="666" type="curve" smooth="yes"/>
			<point x="135" y="667"/>
			<point x="138" y="667"/>
			<point x="140" y="667" type="curve" smooth="yes"/>
			<point x="142" y="667"/>
			<point x="144" y="667"/>
			<point x="146" y="667" type="curve" smooth="yes"/>
			<point x="152" y="666"/>
			<point x="157" y="666"/>
			<point x="163" y="666" type="curve" smooth="yes"/>
			<point x="201" y="666"/>
			<point x="225" y="680"/>
			<point x="265" y="691" type="curve" smooth="yes"/>
			<point x="266" y="691"/>
			<point x="268" y="691"/>
			<point x="269" y="691" type="curve" smooth="yes"/>
			<point x="269" y="691"/>
			<point x="270" y="691"/>
			<point x="270" y="691" type="curve" smooth="yes"/>
			<point x="281" y="690"/>
			<point x="293" y="681"/>
			<point x="301" y="662" type="curve" smooth="yes"/>
			<point x="303" y="656"/>
			<point x="304" y="650"/>
			<point x="304" y="645" type="curve" smooth="yes"/>
			<point x="304" y="644"/>
			<point x="304" y="644"/>
			<point x="304" y="643" type="curve" smooth="yes"/>
			<point x="303" y="631"/>
			<point x="296" y="625"/>
			<point x="288" y="623" type="curve" smooth="yes"/>
			<point x="263" y="617"/>
			<point x="226" y="608"/>
			<point x="191" y="608" type="curve" smooth="yes"/>
			<point x="173" y="608"/>
			<point x="156" y="611"/>
			<point x="141" y="617" type="curve"/>
			<point x="127" y="493"/>
			<point x="82" y="132"/>
			<point x="60" y="-103" type="curve"/>
			<point x="62" y="-103"/>
			<point x="63" y="-103"/>
			<point x="65" y="-103" type="curve" smooth="yes"/>
			<point x="67" y="-103"/>
			<point x="69" y="-103"/>
			<point x="71" y="-103" type="curve" smooth="yes"/>
			<point x="77" y="-104"/>
			<point x="82" y="-104"/>
			<point x="87" y="-104" type="curve" smooth="yes"/>
			<point x="126" y="-104"/>
			<point x="150" y="-90"/>
			<point x="190" y="-79" type="curve" smooth="yes"/>
			<point x="191" y="-79"/>
			<point x="192" y="-79"/>
			<point x="194" y="-79" type="curve" smooth="yes"/>
			<point x="194" y="-79"/>
			<point x="195" y="-79"/>
			<point x="195" y="-79" type="curve" smooth="yes"/>
			<point x="205" y="-80"/>
			<point x="218" y="-89"/>
			<point x="225" y="-108" type="curve" smooth="yes"/>
			<point x="228" y="-114"/>
			<point x="229" y="-120"/>
			<point x="229" y="-125" type="curve" smooth="yes"/>
			<point x="229" y="-126"/>
			<point x="229" y="-126"/>
			<point x="229" y="-127" type="curve" smooth="yes"/>
			<point x="228" y="-139"/>
			<point x="221" y="-145"/>
			<point x="213" y="-147" type="curve" smooth="yes"/>
			<point x="188" y="-153"/>
			<point x="151" y="-162"/>
			<point x="116" y="-162" type="curve" smooth="yes"/>
			<point x="93" y="-162"/>
			<point x="72" y="-158"/>
			<point x="56" y="-147" type="curve" smooth="yes"/>
			<point x="55" y="-146"/>
			<point x="55" y="-146"/>
			<point x="55" y="-146" type="curve"/>
			<point x="49" y="-157"/>
			<point x="35" y="-159"/>
			<point x="22" y="-159" type="curve" smooth="yes"/>
			<point x="16" y="-159"/>
			<point x="11" y="-159"/>
			<point x="5" y="-158" type="curve" smooth="yes"/>
			<point x="4" y="-158"/>
			<point x="4" y="-158"/>
			<point x="3" y="-158" type="curve" smooth="yes"/>
			<point x="-18" y="-156"/>
			<point x="-33" y="-155"/>
			<point x="-33" y="-135" type="curve" smooth="yes"/>
			<point x="-33" y="-54"/>
			<point x="75" y="585"/>
			<point x="115" y="656" type="curve" smooth="yes"/>
			<point x="116" y="657"/>
			<point x="116" y="657"/>
			<point x="116" y="658" type="curve" smooth="yes"/>
			<point x="117" y="659"/>
			<point x="118" y="660"/>
		</contour>
	</outline>
</glyph>
<glyph name="backslash" format="2">
	<advance width="307"/>
	<unicode hex="005C"/>
	<outline>
		<contour>
			<point x="344" y="-68" type="curve" smooth="yes"/>
			<point x="344" y="-69"/>
			<point x="344" y="-71"/>
			<point x="344" y="-72" type="curve" smooth="yes"/>
			<point x="344" y="-91"/>
			<point x="329" y="-93"/>
			<point x="308" y="-94" type="curve" smooth="yes"/>
			<point x="307" y="-95"/>
			<point x="307" y="-95"/>
			<point x="306" y="-95" type="curve" smooth="yes"/>
			<point x="300" y="-95"/>
			<point x="294" y="-96"/>
			<point x="289" y="-96" type="curve" smooth="yes"/>
			<point x="273" y="-96"/>
			<point x="259" y="-92"/>
			<point x="254" y="-75" type="curve" smooth="yes"/>
			<point x="177" y="185"/>
			<point x="12" y="614"/>
			<point x="-20" y="680" type="curve" smooth="yes"/>
			<point x="-21" y="682"/>
			<point x="-22" y="685"/>
			<point x="-22" y="687" type="curve" smooth="yes"/>
			<point x="-22" y="694"/>
			<point x="-15" y="699"/>
			<point x="-7" y="699" type="curve" smooth="yes"/>
			<point x="-4" y="699"/>
			<point x="-2" y="699"/>
			<point x="1" y="698" type="curve" smooth="yes"/>
			<point x="49" y="680"/>
			<point x="337" y="16"/>
		</contour>
	</outline>
</glyph>
<glyph name="asciicircum" format="2">
	<advance width="331"/>
	<unicode hex="005E"/>
	<outline>
		<contour>
			<point x="309" y="444" type="curve" smooth="yes"/>
			<point x="315" y="441"/>
			<point x="321" y="433"/>
			<point x="321" y="419" type="curve" smooth="yes"/>
			<point x="321" y="411"/>
			<point x="319" y="402"/>
			<point x="314" y="390" type="curve" smooth="yes"/>
			<point x="306" y="375"/>
			<point x="297" y="369"/>
			<point x="288" y="369" type="curve" smooth="yes"/>
			<point x="283" y="369"/>
			<point x="279" y="371"/>
			<point x="276" y="373" type="curve" smooth="yes"/>
			<point x="236" y="400"/>
			<point x="175" y="456"/>
			<point x="149" y="492" type="curve"/>
			<point x="117" y="447"/>
			<point x="61" y="376"/>
			<point x="36" y="370" type="curve" smooth="yes"/>
			<point x="32" y="370"/>
			<point x="28" y="369"/>
			<point x="25" y="369" type="curve" smooth="yes"/>
			<point x="10" y="369"/>
			<point x="0" y="377"/>
			<point x="0" y="388" type="curve" smooth="yes"/>
			<point x="0" y="389"/>
			<point x="0" y="391"/>
			<point x="1" y="393" type="curve" smooth="yes"/>
			<point x="6" y="409"/>
			<point x="40" y="426"/>
			<point x="105" y="531" type="curve" smooth="yes"/>
			<point x="112" y="543"/>
			<point x="127" y="547"/>
			<point x="142" y="547" type="curve" smooth="yes"/>
			<point x="153" y="547"/>
			<point x="164" y="545"/>
			<point x="172" y="541" type="curve" smooth="yes"/>
			<point x="188" y="534"/>
			<point x="224" y="500"/>
		</contour>
	</outline>
</glyph>
<glyph name="underscore" format="2">
	<advance width="496"/>
	<unicode hex="005F"/>
	<outline>
		<contour>
			<point x="314" y="-4" type="curve" smooth="yes"/>
			<point x="316" y="-3"/>
			<point x="317" y="-3"/>
			<point x="319" y="-3" type="curve" smooth="yes"/>
			<point x="329" y="-3"/>
			<point x="343" y="-11"/>
			<point x="352" y="-29" type="curve" smooth="yes"/>
			<point x="356" y="-36"/>
			<point x="357" y="-43"/>
			<point x="357" y="-48" type="curve" smooth="yes"/>
			<point x="357" y="-59"/>
			<point x="350" y="-66"/>
			<point x="342" y="-69" type="curve" smooth="yes"/>
			<point x="313" y="-79"/>
			<point x="192" y="-87"/>
			<point x="90" y="-87" type="curve" smooth="yes"/>
			<point x="15" y="-87"/>
			<point x="-50" y="-83"/>
			<point x="-62" y="-71" type="curve" smooth="yes"/>
			<point x="-71" y="-63"/>
			<point x="-75" y="-54"/>
			<point x="-75" y="-46" type="curve" smooth="yes"/>
			<point x="-75" y="-38"/>
			<point x="-71" y="-32"/>
			<point x="-62" y="-30" type="curve" smooth="yes"/>
			<point x="-58" y="-29"/>
			<point x="-50" y="-29"/>
			<point x="-37" y="-29" type="curve" smooth="yes"/>
			<point x="-11" y="-29"/>
			<point x="32" y="-30"/>
			<point x="81" y="-30" type="curve" smooth="yes"/>
			<point x="159" y="-30"/>
			<point x="251" y="-26"/>
		</contour>
	</outline>
</glyph>
<glyph name="grave" format="2">
	<advance width="207"/>
	<unicode hex="0060"/>
	<outline>
		<contour>
			<point x="97" y="539" type="curve" smooth="yes"/>
			<point x="41" y="623"/>
			<point x="5" y="659"/>
			<point x="0" y="676" type="curve" smooth="yes"/>
			<point x="-1" y="677"/>
			<point x="-1" y="679"/>
			<point x="-1" y="681" type="curve" smooth="yes"/>
			<point x="-1" y="691"/>
			<point x="9" y="699"/>
			<point x="24" y="699" type="curve" smooth="yes"/>
			<point x="27" y="699"/>
			<point x="31" y="699"/>
			<point x="35" y="698" type="curve" smooth="yes"/>
			<point x="69" y="690"/>
			<point x="137" y="617"/>
			<point x="168" y="572" type="curve" smooth="yes"/>
			<point x="170" y="569"/>
			<point x="172" y="564"/>
			<point x="172" y="560" type="curve" smooth="yes"/>
			<point x="172" y="551"/>
			<point x="167" y="542"/>
			<point x="151" y="534" type="curve" smooth="yes"/>
			<point x="140" y="529"/>
			<point x="130" y="526"/>
			<point x="122" y="526" type="curve" smooth="yes"/>
			<point x="109" y="526"/>
			<point x="101" y="533"/>
		</contour>
	</outline>
</glyph>
<glyph name="braceleft" format="2">
	<advance width="190"/>
	<unicode hex="007B"/>
	<outline>
		<contour>
			<point x="328" y="671" type="curve" smooth="yes"/>
			<point x="329" y="671"/>
			<point x="330" y="671"/>
			<point x="331" y="671" type="curve" smooth="yes"/>
			<point x="337" y="669"/>
			<point x="340" y="664"/>
			<point x="340" y="657" type="curve" smooth="yes"/>
			<point x="340" y="656"/>
			<point x="340" y="654"/>
			<point x="340" y="653" type="curve" smooth="yes"/>
			<point x="338" y="645"/>
			<point x="333" y="636"/>
			<point x="325" y="635" type="curve" smooth="yes"/>
			<point x="246" y="622"/>
			<point x="203" y="272"/>
			<point x="46" y="239" type="curve"/>
			<point x="131" y="126"/>
			<point x="79" y="-169"/>
			<point x="173" y="-203" type="curve" smooth="yes"/>
			<point x="182" y="-206"/>
			<point x="189" y="-217"/>
			<point x="189" y="-227" type="curve" smooth="yes"/>
			<point x="189" y="-228"/>
			<point x="189" y="-229"/>
			<point x="189" y="-230" type="curve" smooth="yes"/>
			<point x="188" y="-238"/>
			<point x="182" y="-244"/>
			<point x="168" y="-244" type="curve" smooth="yes"/>
			<point x="166" y="-244"/>
			<point x="162" y="-244"/>
			<point x="159" y="-243" type="curve" smooth="yes"/>
			<point x="-36" y="-209"/>
			<point x="65" y="197"/>
			<point x="-11" y="241" type="curve" smooth="yes"/>
			<point x="-21" y="245"/>
			<point x="-25" y="251"/>
			<point x="-25" y="257" type="curve" smooth="yes"/>
			<point x="-25" y="258"/>
			<point x="-25" y="259"/>
			<point x="-24" y="260" type="curve" smooth="yes"/>
			<point x="-22" y="271"/>
			<point x="-11" y="281"/>
			<point x="0" y="281" type="curve" smooth="yes"/>
			<point x="0" y="281" type="line" smooth="yes"/>
			<point x="115" y="281"/>
			<point x="167" y="671"/>
		</contour>
	</outline>
</glyph>
<glyph name="braceright" format="2">
	<advance width="190"/>
	<unicode hex="007D"/>
	<outline>
		<contour>
			<point x="76" y="715" type="curve" smooth="yes"/>
			<point x="227" y="660"/>
			<point x="143" y="276"/>
			<point x="250" y="237" type="curve" smooth="yes"/>
			<point x="260" y="233"/>
			<point x="267" y="222"/>
			<point x="267" y="212" type="curve" smooth="yes"/>
			<point x="267" y="211"/>
			<point x="267" y="210"/>
			<point x="266" y="209" type="curve" smooth="yes"/>
			<point x="265" y="202"/>
			<point x="259" y="196"/>
			<point x="247" y="196" type="curve" smooth="yes"/>
			<point x="164" y="180"/>
			<point x="121" y="-203"/>
			<point x="-55" y="-203" type="curve" smooth="yes"/>
			<point x="-63" y="-203"/>
			<point x="-70" y="-203"/>
			<point x="-78" y="-201" type="curve" smooth="yes"/>
			<point x="-96" y="-198"/>
			<point x="-102" y="-190"/>
			<point x="-102" y="-182" type="curve" smooth="yes"/>
			<point x="-102" y="-181"/>
			<point x="-102" y="-180"/>
			<point x="-102" y="-179" type="curve" smooth="yes"/>
			<point x="-100" y="-169"/>
			<point x="-88" y="-159"/>
			<point x="-77" y="-159" type="curve" smooth="yes"/>
			<point x="-77" y="-159" type="line" smooth="yes"/>
			<point x="22" y="-159"/>
			<point x="75" y="136"/>
			<point x="193" y="213" type="curve"/>
			<point x="57" y="298"/>
			<point x="136" y="641"/>
			<point x="66" y="681" type="curve" smooth="yes"/>
			<point x="61" y="684"/>
			<point x="58" y="691"/>
			<point x="58" y="698" type="curve" smooth="yes"/>
			<point x="58" y="700"/>
			<point x="58" y="701"/>
			<point x="58" y="703" type="curve" smooth="yes"/>
			<point x="60" y="710"/>
			<point x="64" y="716"/>
			<point x="71" y="716" type="curve" smooth="yes"/>
			<point x="72" y="716"/>
			<point x="72" y="716"/>
			<point x="73" y="716" type="curve" smooth="yes"/>
			<point x="74" y="716"/>
			<point x="75" y="716"/>
		</contour>
	</outline>
</glyph>
<glyph name="asciitilde" format="2">
	<advance width="491"/>
	<unicode hex="007E"/>
	<outline>
		<contour>
			<point x="160" y="244" type="curve" smooth="yes"/>
			<point x="85" y="244"/>
			<point x="56" y="210"/>
			<point x="17" y="210" type="curve" smooth="yes"/>
			<point x="8" y="210"/>
			<point x="6" y="213"/>
			<point x="6" y="219" type="curve" smooth="yes"/>
			<point x="6" y="220"/>
			<point x="6" y="220"/>
			<point x="6" y="220" type="curve" smooth="yes"/>
			<point x="7" y="237"/>
			<point x="70" y="303"/>
			<point x="184" y="303" type="curve" smooth="yes"/>
			<point x="186" y="303"/>
			<point x="188" y="303"/>
			<point x="190" y="303" type="curve" smooth="yes"/>
			<point x="240" y="302"/>
			<point x="285" y="267"/>
			<point x="353" y="267" type="curve" smooth="yes"/>
			<point x="408" y="267"/>
			<point x="434" y="297"/>
			<point x="473" y="297" type="curve" smooth="yes"/>
			<point x="482" y="297"/>
			<point x="484" y="294"/>
			<point x="484" y="287" type="curve" smooth="yes"/>
			<point x="484" y="264"/>
			<point x="412" y="210"/>
			<point x="315" y="210" type="curve" smooth="yes"/>
			<point x="313" y="210"/>
			<point x="311" y="210"/>
			<point x="308" y="210" type="curve" smooth="yes"/>
			<point x="267" y="211"/>
			<point x="193" y="244"/>
		</contour>
	</outline>
</glyph>
<glyph name="uni00AD" format="2">
	<advance width="317"/>
	<unicode hex="00AD"/>
	<outline>
		<contour>
			<point x="255" y="279" type="curve" smooth="yes"/>
			<point x="257" y="280"/>
			<point x="259" y="280"/>
			<point x="261" y="280" type="curve" smooth="yes"/>
			<point x="271" y="280"/>
			<point x="284" y="272"/>
			<point x="293" y="254" type="curve" smooth="yes"/>
			<point x="297" y="246"/>
			<point x="299" y="240"/>
			<point x="299" y="235" type="curve" smooth="yes"/>
			<point x="299" y="223"/>
			<point x="292" y="216"/>
			<point x="284" y="214" type="curve" smooth="yes"/>
			<point x="256" y="204"/>
			<point x="193" y="198"/>
			<point x="136" y="198" type="curve" smooth="yes"/>
			<point x="89" y="198"/>
			<point x="46" y="202"/>
			<point x="31" y="213" type="curve" smooth="yes"/>
			<point x="20" y="220"/>
			<point x="14" y="230"/>
			<point x="14" y="238" type="curve" smooth="yes"/>
			<point x="14" y="244"/>
			<point x="17" y="250"/>
			<point x="24" y="253" type="curve" smooth="yes"/>
			<point x="29" y="255"/>
			<point x="36" y="256"/>
			<point x="46" y="256" type="curve" smooth="yes"/>
			<point x="61" y="256"/>
			<point x="82" y="254"/>
			<point x="108" y="254" type="curve" smooth="yes"/>
			<point x="147" y="254"/>
			<point x="197" y="258"/>
		</contour>
	</outline>
</glyph>
<glyph name="guillemotright" format="2">
	<advance width="338"/>
	<unicode hex="00BB"/>
	<outline>
		<contour>
			<point x="181" y="0" type="curve" smooth="yes"/>
			<point x="177" y="-5"/>
			<point x="170" y="-10"/>
			<point x="159" y="-10" type="curve" smooth="yes"/>
			<point x="158" y="-10"/>
			<point x="156" y="-10"/>
			<point x="155" y="-10" type="curve" smooth="yes"/>
			<point x="147" y="-9"/>
			<point x="138" y="-6"/>
			<point x="127" y="0" type="curve" smooth="yes"/>
			<point x="113" y="8"/>
			<point x="108" y="18"/>
			<point x="108" y="26" type="curve" smooth="yes"/>
			<point x="108" y="26"/>
			<point x="108" y="27"/>
			<point x="108" y="28" type="curve" smooth="yes"/>
			<point x="109" y="32"/>
			<point x="111" y="36"/>
			<point x="113" y="39" type="curve" smooth="yes"/>
			<point x="144" y="77"/>
			<point x="215" y="141"/>
			<point x="253" y="164" type="curve"/>
			<point x="211" y="199"/>
			<point x="140" y="271"/>
			<point x="136" y="297" type="curve" smooth="yes"/>
			<point x="136" y="299"/>
			<point x="136" y="302"/>
			<point x="136" y="304" type="curve" smooth="yes"/>
			<point x="136" y="305"/>
			<point x="136" y="306"/>
			<point x="136" y="307" type="curve" smooth="yes"/>
			<point x="137" y="322"/>
			<point x="145" y="331"/>
			<point x="155" y="331" type="curve" smooth="yes"/>
			<point x="155" y="331"/>
			<point x="156" y="331"/>
			<point x="156" y="331" type="curve" smooth="yes"/>
			<point x="158" y="331"/>
			<point x="160" y="330"/>
			<point x="161" y="329" type="curve" smooth="yes"/>
			<point x="178" y="323"/>
			<point x="197" y="281"/>
			<point x="296" y="207" type="curve" smooth="yes"/>
			<point x="305" y="199"/>
			<point x="309" y="187"/>
			<point x="309" y="175" type="curve" smooth="yes"/>
			<point x="309" y="161"/>
			<point x="305" y="148"/>
			<point x="300" y="139" type="curve" smooth="yes"/>
			<point x="291" y="123"/>
			<point x="244" y="79"/>
		</contour>
		<contour>
			<point x="64" y="12" type="curve" smooth="yes"/>
			<point x="60" y="7"/>
			<point x="53" y="2"/>
			<point x="41" y="2" type="curve" smooth="yes"/>
			<point x="40" y="2"/>
			<point x="39" y="2"/>
			<point x="38" y="2" type="curve" smooth="yes"/>
			<point x="30" y="2"/>
			<point x="21" y="5"/>
			<point x="10" y="12" type="curve" smooth="yes"/>
			<point x="-4" y="20"/>
			<point x="-9" y="29"/>
			<point x="-9" y="38" type="curve" smooth="yes"/>
			<point x="-9" y="38"/>
			<point x="-9" y="39"/>
			<point x="-9" y="39" type="curve" smooth="yes"/>
			<point x="-8" y="44"/>
			<point x="-7" y="48"/>
			<point x="-4" y="51" type="curve" smooth="yes"/>
			<point x="27" y="88"/>
			<point x="88" y="142"/>
			<point x="125" y="165" type="curve"/>
			<point x="83" y="200"/>
			<point x="32" y="250"/>
			<point x="28" y="276" type="curve" smooth="yes"/>
			<point x="28" y="278"/>
			<point x="28" y="280"/>
			<point x="28" y="282" type="curve" smooth="yes"/>
			<point x="28" y="284"/>
			<point x="28" y="285"/>
			<point x="28" y="286" type="curve" smooth="yes"/>
			<point x="29" y="301"/>
			<point x="37" y="310"/>
			<point x="47" y="310" type="curve" smooth="yes"/>
			<point x="47" y="310"/>
			<point x="48" y="310"/>
			<point x="48" y="310" type="curve" smooth="yes"/>
			<point x="50" y="309"/>
			<point x="52" y="309"/>
			<point x="53" y="308" type="curve" smooth="yes"/>
			<point x="70" y="301"/>
			<point x="70" y="282"/>
			<point x="168" y="208" type="curve" smooth="yes"/>
			<point x="178" y="201"/>
			<point x="182" y="188"/>
			<point x="182" y="176" type="curve" smooth="yes"/>
			<point x="182" y="162"/>
			<point x="178" y="149"/>
			<point x="173" y="140" type="curve" smooth="yes"/>
			<point x="164" y="124"/>
			<point x="127" y="91"/>
		</contour>
	</outline>
</glyph>
<glyph name="uni05D0" format="2">
	<advance width="156"/>
	<unicode hex="05D0"/>
	<outline>
		<contour>
			<point x="248" y="562" type="curve" smooth="yes"/>
			<point x="202" y="461"/>
			<point x="110" y="-1"/>
			<point x="-55" y="-1" type="curve" smooth="yes"/>
			<point x="-75" y="-1"/>
			<point x="-82" y="7"/>
			<point x="-82" y="17" type="curve" smooth="yes"/>
			<point x="-82" y="27"/>
			<point x="-72" y="39"/>
			<point x="-61" y="41" type="curve" smooth="yes"/>
			<point x="46" y="60"/>
			<point x="164" y="700"/>
			<point x="304" y="700" type="curve" smooth="yes"/>
			<point x="338" y="700"/>
			<point x="351" y="681"/>
			<point x="351" y="655" type="curve" smooth="yes"/>
			<point x="351" y="620"/>
			<point x="333" y="580"/>
			<point x="298" y="580" type="curve" smooth="yes"/>
			<point x="295" y="580"/>
			<point x="291" y="580"/>
			<point x="287" y="581" type="curve" smooth="yes"/>
			<point x="284" y="582"/>
			<point x="280" y="582"/>
			<point x="277" y="582" type="curve" smooth="yes"/>
			<point x="265" y="582"/>
			<point x="255" y="577"/>
		</contour>
	</outline>
</glyph>
<glyph name="uni05D1" format="2">
	<advance width="305"/>
	<unicode hex="05D1"/>
	<outline>
		<contour>
			<point x="66" y="0" type="curve" smooth="yes"/>
			<point x="-32" y="0"/>
			<point x="-78" y="52"/>
			<point x="-78" y="76" type="curve" smooth="yes"/>
			<point x="-78" y="83"/>
			<point x="-74" y="87"/>
			<point x="-66" y="87" type="curve" smooth="yes"/>
			<point x="-63" y="87"/>
			<point x="-60" y="87"/>
			<point x="-57" y="86" type="curve" smooth="yes"/>
			<point x="-42" y="81"/>
			<point x="-2" y="51"/>
			<point x="55" y="51" type="curve" smooth="yes"/>
			<point x="59" y="51"/>
			<point x="63" y="51"/>
			<point x="67" y="51" type="curve" smooth="yes"/>
			<point x="128" y="56"/>
			<point x="180" y="104"/>
			<point x="185" y="164" type="curve" smooth="yes"/>
			<point x="185" y="166"/>
			<point x="185" y="169"/>
			<point x="185" y="172" type="curve" smooth="yes"/>
			<point x="185" y="214"/>
			<point x="154" y="232"/>
			<point x="118" y="232" type="curve" smooth="yes"/>
			<point x="79" y="232"/>
			<point x="62" y="216"/>
			<point x="45" y="206" type="curve" smooth="yes"/>
			<point x="37" y="202"/>
			<point x="31" y="200"/>
			<point x="26" y="200" type="curve" smooth="yes"/>
			<point x="18" y="200"/>
			<point x="12" y="204"/>
			<point x="10" y="209" type="curve" smooth="yes"/>
			<point x="9" y="211"/>
			<point x="9" y="212"/>
			<point x="9" y="214" type="curve" smooth="yes"/>
			<point x="9" y="236"/>
			<point x="72" y="279"/>
			<point x="136" y="279" type="curve" smooth="yes"/>
			<point x="199" y="279"/>
			<point x="271" y="249"/>
			<point x="271" y="177" type="curve" smooth="yes"/>
			<point x="271" y="173"/>
			<point x="271" y="168"/>
			<point x="270" y="164" type="curve" smooth="yes"/>
			<point x="260" y="58"/>
			<point x="166" y="0"/>
		</contour>
	</outline>
</glyph>
<glyph name="uni05D3" format="2">
	<advance width="227"/>
	<unicode hex="05D3"/>
	<outline>
		<contour>
			<point x="-20" y="349" type="curve" smooth="yes"/>
			<point x="55" y="344"/>
			<point x="195" y="314"/>
			<point x="195" y="197" type="curve" smooth="yes"/>
			<point x="195" y="116"/>
			<point x="136" y="0"/>
			<point x="28" y="0" type="curve" smooth="yes"/>
			<point x="8" y="0"/>
			<point x="0" y="8"/>
			<point x="0" y="18" type="curve" smooth="yes"/>
			<point x="0" y="28"/>
			<point x="10" y="40"/>
			<point x="21" y="42" type="curve" smooth="yes"/>
			<point x="79" y="52"/>
			<point x="97" y="115"/>
			<point x="105" y="187" type="curve" smooth="yes"/>
			<point x="105" y="192"/>
			<point x="105" y="198"/>
			<point x="105" y="202" type="curve" smooth="yes"/>
			<point x="105" y="285"/>
			<point x="27" y="296"/>
			<point x="-45" y="308" type="curve" smooth="yes"/>
			<point x="-161" y="328"/>
			<point x="-198" y="365"/>
			<point x="-198" y="385" type="curve" smooth="yes"/>
			<point x="-198" y="392"/>
			<point x="-193" y="396"/>
			<point x="-185" y="396" type="curve" smooth="yes"/>
			<point x="-184" y="396"/>
			<point x="-183" y="396"/>
			<point x="-183" y="396" type="curve" smooth="yes"/>
			<point x="-162" y="394"/>
			<point x="-100" y="355"/>
		</contour>
	</outline>
</glyph>
<glyph name="uni05D5" format="2">
	<advance width="167"/>
	<unicode hex="05D5"/>
	<outline>
		<contour>
			<point x="134" y="256" type="curve" smooth="yes"/>
			<point x="134" y="229"/>
			<point x="91" y="140"/>
			<point x="49" y="75" type="curve" smooth="yes"/>
			<point x="22" y="32"/>
			<point x="-4" y="0"/>
			<point x="-20" y="0" type="curve" smooth="yes"/>
			<point x="-41" y="0"/>
			<point x="-41" y="7"/>
			<point x="-41" y="19" type="curve" smooth="yes"/>
			<point x="-41" y="33"/>
			<point x="17" y="157"/>
			<point x="43" y="255" type="curve" smooth="yes"/>
			<point x="50" y="278"/>
			<point x="71" y="279"/>
			<point x="93" y="279" type="curve" smooth="yes"/>
			<point x="95" y="279"/>
			<point x="95" y="279"/>
			<point x="96" y="279" type="curve" smooth="yes"/>
			<point x="118" y="279"/>
			<point x="134" y="279"/>
		</contour>
	</outline>
</glyph>
<glyph name="uni05D6" format="2">
	<advance width="200"/>
	<unicode hex="05D6"/>
	<outline>
		<contour>
			<point x="-28" y="-1" type="curve" smooth="yes"/>
			<point x="-39" y="-1"/>
			<point x="-51" y="6"/>
			<point x="-51" y="20" type="curve" smooth="yes"/>
			<point x="-51" y="31"/>
			<point x="51" y="305"/>
			<point x="162" y="305" type="curve" smooth="yes"/>
			<point x="184" y="305"/>
			<point x="199" y="286"/>
			<point x="199" y="265" type="curve" smooth="yes"/>
			<point x="199" y="224"/>
			<point x="169" y="185"/>
			<point x="142" y="185" type="curve" smooth="yes"/>
			<point x="126" y="185"/>
			<point x="105" y="185"/>
			<point x="95" y="169" type="curve" smooth="yes"/>
			<point x="19" y="55"/>
			<point x="0" y="-1"/>
		</contour>
	</outline>
</glyph>
<glyph name="uni05D7" format="2">
	<advance width="392"/>
	<unicode hex="05D7"/>
	<outline>
		<contour>
			<point x="-43" y="0" type="curve" smooth="yes"/>
			<point x="-63" y="0"/>
			<point x="-71" y="8"/>
			<point x="-71" y="18" type="curve" smooth="yes"/>
			<point x="-71" y="28"/>
			<point x="-61" y="40"/>
			<point x="-50" y="42" type="curve" smooth="yes"/>
			<point x="0" y="51"/>
			<point x="50" y="176"/>
			<point x="72" y="256" type="curve" smooth="yes"/>
			<point x="79" y="279"/>
			<point x="91" y="279"/>
			<point x="114" y="279" type="curve" smooth="yes"/>
			<point x="115" y="279"/>
			<point x="115" y="279"/>
			<point x="116" y="279" type="curve" smooth="yes"/>
			<point x="136" y="279"/>
			<point x="151" y="279"/>
			<point x="153" y="260" type="curve"/>
			<point x="174" y="271"/>
			<point x="205" y="280"/>
			<point x="249" y="280" type="curve" smooth="yes"/>
			<point x="256" y="280"/>
			<point x="263" y="280"/>
			<point x="270" y="279" type="curve" smooth="yes"/>
			<point x="316" y="276"/>
			<point x="358" y="256"/>
			<point x="358" y="203" type="curve" smooth="yes"/>
			<point x="358" y="111"/>
			<point x="287" y="0"/>
			<point x="201" y="0" type="curve" smooth="yes"/>
			<point x="190" y="0"/>
			<point x="184" y="6"/>
			<point x="184" y="14" type="curve" smooth="yes"/>
			<point x="184" y="22"/>
			<point x="190" y="32"/>
			<point x="201" y="38" type="curve" smooth="yes"/>
			<point x="228" y="52"/>
			<point x="256" y="96"/>
			<point x="265" y="183" type="curve" smooth="yes"/>
			<point x="265" y="186"/>
			<point x="265" y="190"/>
			<point x="265" y="193" type="curve" smooth="yes"/>
			<point x="265" y="232"/>
			<point x="238" y="236"/>
			<point x="216" y="237" type="curve" smooth="yes"/>
			<point x="214" y="237"/>
			<point x="213" y="237"/>
			<point x="212" y="237" type="curve" smooth="yes"/>
			<point x="190" y="237"/>
			<point x="167" y="227"/>
			<point x="148" y="217" type="curve"/>
			<point x="126" y="129"/>
			<point x="42" y="0"/>
		</contour>
	</outline>
</glyph>
<glyph name="uni05D8" format="2">
	<advance width="395"/>
	<unicode hex="05D8"/>
	<outline>
		<contour>
			<point x="99" y="156" type="curve" smooth="yes"/>
			<point x="96" y="149"/>
			<point x="95" y="141"/>
			<point x="95" y="134" type="curve" smooth="yes"/>
			<point x="95" y="101"/>
			<point x="118" y="66"/>
			<point x="149" y="66" type="curve" smooth="yes"/>
			<point x="233" y="66"/>
			<point x="269" y="152"/>
			<point x="269" y="239" type="curve" smooth="yes"/>
			<point x="269" y="275"/>
			<point x="308" y="285"/>
			<point x="348" y="285" type="curve" smooth="yes"/>
			<point x="359" y="285"/>
			<point x="371" y="278"/>
			<point x="371" y="264" type="curve" smooth="yes"/>
			<point x="371" y="144"/>
			<point x="263" y="20"/>
			<point x="147" y="20" type="curve" smooth="yes"/>
			<point x="98" y="20"/>
			<point x="67" y="42"/>
			<point x="51" y="73" type="curve"/>
			<point x="29" y="39"/>
			<point x="-2" y="0"/>
			<point x="-20" y="0" type="curve" smooth="yes"/>
			<point x="-41" y="0"/>
			<point x="-41" y="7"/>
			<point x="-41" y="19" type="curve" smooth="yes"/>
			<point x="-41" y="33"/>
			<point x="14" y="149"/>
			<point x="41" y="247" type="curve" smooth="yes"/>
			<point x="48" y="270"/>
			<point x="69" y="272"/>
			<point x="91" y="272" type="curve" smooth="yes"/>
			<point x="92" y="272"/>
			<point x="92" y="272"/>
			<point x="93" y="272" type="curve" smooth="yes"/>
			<point x="116" y="272"/>
			<point x="131" y="272"/>
			<point x="131" y="248" type="curve" smooth="yes"/>
			<point x="131" y="238"/>
			<point x="116" y="197"/>
		</contour>
	</outline>
</glyph>
<glyph name="uni05DB" format="2">
	<advance width="322"/>
	<unicode hex="05DB"/>
	<outline>
		<contour>
			<point x="58" y="175" type="curve" smooth="yes"/>
			<point x="55" y="174"/>
			<point x="52" y="174"/>
			<point x="50" y="174" type="curve" smooth="yes"/>
			<point x="34" y="174"/>
			<point x="23" y="182"/>
			<point x="19" y="196" type="curve" smooth="yes"/>
			<point x="18" y="199"/>
			<point x="18" y="202"/>
			<point x="18" y="205" type="curve" smooth="yes"/>
			<point x="18" y="235"/>
			<point x="59" y="279"/>
			<point x="154" y="279" type="curve" smooth="yes"/>
			<point x="217" y="279"/>
			<point x="289" y="249"/>
			<point x="289" y="177" type="curve" smooth="yes"/>
			<point x="289" y="173"/>
			<point x="289" y="168"/>
			<point x="288" y="164" type="curve" smooth="yes"/>
			<point x="278" y="58"/>
			<point x="184" y="0"/>
			<point x="83" y="0" type="curve" smooth="yes"/>
			<point x="-15" y="0"/>
			<point x="-60" y="52"/>
			<point x="-60" y="76" type="curve" smooth="yes"/>
			<point x="-60" y="83"/>
			<point x="-56" y="87"/>
			<point x="-48" y="87" type="curve" smooth="yes"/>
			<point x="-45" y="87"/>
			<point x="-42" y="87"/>
			<point x="-39" y="86" type="curve" smooth="yes"/>
			<point x="-24" y="81"/>
			<point x="16" y="51"/>
			<point x="73" y="51" type="curve" smooth="yes"/>
			<point x="77" y="51"/>
			<point x="81" y="51"/>
			<point x="85" y="51" type="curve" smooth="yes"/>
			<point x="146" y="56"/>
			<point x="198" y="104"/>
			<point x="203" y="164" type="curve" smooth="yes"/>
			<point x="203" y="166"/>
			<point x="203" y="169"/>
			<point x="203" y="172" type="curve" smooth="yes"/>
			<point x="203" y="210"/>
			<point x="178" y="238"/>
			<point x="147" y="238" type="curve" smooth="yes"/>
			<point x="144" y="238"/>
			<point x="141" y="238"/>
			<point x="138" y="237" type="curve" smooth="yes"/>
			<point x="100" y="231"/>
			<point x="118" y="185"/>
		</contour>
	</outline>
</glyph>
<glyph name="uni05DC" format="2">
	<advance width="334"/>
	<unicode hex="05DC"/>
	<outline>
		<contour>
			<point x="297" y="631" type="curve" smooth="yes"/>
			<point x="297" y="640"/>
			<point x="293" y="649"/>
			<point x="279" y="649" type="curve" smooth="yes"/>
			<point x="215" y="649"/>
			<point x="51" y="317"/>
			<point x="51" y="118" type="curve" smooth="yes"/>
			<point x="51" y="82"/>
			<point x="70" y="48"/>
			<point x="99" y="48" type="curve" smooth="yes"/>
			<point x="161" y="48"/>
			<point x="184" y="97"/>
			<point x="207" y="148" type="curve" smooth="yes"/>
			<point x="216" y="170"/>
			<point x="244" y="170"/>
			<point x="260" y="170" type="curve" smooth="yes"/>
			<point x="283" y="170"/>
			<point x="292" y="166"/>
			<point x="292" y="148" type="curve" smooth="yes"/>
			<point x="292" y="83"/>
			<point x="209" y="0"/>
			<point x="98" y="0" type="curve" smooth="yes"/>
			<point x="10" y="0"/>
			<point x="0" y="104"/>
			<point x="0" y="138" type="curve" smooth="yes"/>
			<point x="0" y="345"/>
			<point x="164" y="695"/>
			<point x="296" y="700" type="curve" smooth="yes"/>
			<point x="301" y="700"/>
			<point x="306" y="700"/>
			<point x="310" y="700" type="curve" smooth="yes"/>
			<point x="349" y="700"/>
			<point x="384" y="690"/>
			<point x="384" y="619" type="curve" smooth="yes"/>
			<point x="384" y="462"/>
			<point x="178" y="120"/>
			<point x="111" y="120" type="curve" smooth="yes"/>
			<point x="99" y="120"/>
			<point x="97" y="124"/>
			<point x="97" y="136" type="curve" smooth="yes"/>
			<point x="97" y="153"/>
			<point x="297" y="467"/>
			<point x="297" y="625" type="curve" smooth="yes"/>
			<point x="297" y="627"/>
			<point x="297" y="629"/>
		</contour>
	</outline>
</glyph>
<glyph name="uni05DD" format="2">
	<advance width="334"/>
	<unicode hex="05DD"/>
	<outline>
		<contour>
			<point x="178" y="279" type="curve" smooth="yes"/>
			<point x="265" y="279"/>
			<point x="300" y="233"/>
			<point x="300" y="177" type="curve" smooth="yes"/>
			<point x="300" y="173"/>
			<point x="300" y="168"/>
			<point x="299" y="164" type="curve" smooth="yes"/>
			<point x="290" y="60"/>
			<point x="208" y="0"/>
			<point x="109" y="0" type="curve" smooth="yes"/>
			<point x="31" y="0"/>
			<point x="0" y="45"/>
			<point x="0" y="104" type="curve" smooth="yes"/>
			<point x="0" y="108"/>
			<point x="0" y="112"/>
			<point x="0" y="116" type="curve" smooth="yes"/>
			<point x="6" y="216"/>
			<point x="73" y="279"/>
		</contour>
		<contour>
			<point x="111" y="46" type="curve" smooth="yes"/>
			<point x="125" y="47"/>
			<point x="200" y="58"/>
			<point x="214" y="164" type="curve" smooth="yes"/>
			<point x="214" y="168"/>
			<point x="215" y="173"/>
			<point x="215" y="177" type="curve" smooth="yes"/>
			<point x="215" y="211"/>
			<point x="196" y="236"/>
			<point x="166" y="236" type="curve" smooth="yes"/>
			<point x="119" y="236"/>
			<point x="68" y="179"/>
			<point x="65" y="105" type="curve" smooth="yes"/>
			<point x="64" y="103"/>
			<point x="64" y="101"/>
			<point x="64" y="99" type="curve" smooth="yes"/>
			<point x="64" y="65"/>
			<point x="81" y="45"/>
			<point x="106" y="45" type="curve" smooth="yes"/>
			<point x="108" y="45"/>
			<point x="110" y="45"/>
		</contour>
	</outline>
</glyph>
<glyph name="uni05DE" format="2">
	<advance width="452"/>
	<unicode hex="05DE"/>
	<outline>
		<contour>
			<point x="134" y="256" type="curve" smooth="yes"/>
			<point x="134" y="239"/>
			<point x="109" y="188"/>
			<point x="91" y="136" type="curve" smooth="yes"/>
			<point x="88" y="125"/>
			<point x="86" y="114"/>
			<point x="86" y="104" type="curve" smooth="yes"/>
			<point x="86" y="70"/>
			<point x="105" y="46"/>
			<point x="129" y="46" type="curve" smooth="yes"/>
			<point x="280" y="46"/>
			<point x="272" y="304"/>
			<point x="423" y="304" type="curve" smooth="yes"/>
			<point x="444" y="304"/>
			<point x="452" y="287"/>
			<point x="452" y="266" type="curve" smooth="yes"/>
			<point x="452" y="225"/>
			<point x="422" y="186"/>
			<point x="395" y="186" type="curve" smooth="yes"/>
			<point x="378" y="186"/>
			<point x="357" y="186"/>
			<point x="347" y="170" type="curve" smooth="yes"/>
			<point x="288" y="80"/>
			<point x="242" y="0"/>
			<point x="127" y="0" type="curve" smooth="yes"/>
			<point x="78" y="0"/>
			<point x="56" y="29"/>
			<point x="40" y="61" type="curve"/>
			<point x="17" y="26"/>
			<point x="-6" y="0"/>
			<point x="-20" y="0" type="curve" smooth="yes"/>
			<point x="-41" y="0"/>
			<point x="-41" y="7"/>
			<point x="-41" y="19" type="curve" smooth="yes"/>
			<point x="-41" y="33"/>
			<point x="17" y="157"/>
			<point x="43" y="255" type="curve" smooth="yes"/>
			<point x="50" y="278"/>
			<point x="71" y="279"/>
			<point x="93" y="279" type="curve" smooth="yes"/>
			<point x="95" y="279"/>
			<point x="95" y="279"/>
			<point x="96" y="279" type="curve" smooth="yes"/>
			<point x="118" y="279"/>
			<point x="134" y="279"/>
		</contour>
	</outline>
</glyph>
<glyph name="uni05E2" format="2">
	<advance width="406"/>
	<unicode hex="05E2"/>
	<outline>
		<contour>
			<point x="56" y="52" type="curve"/>
			<point x="201" y="58"/>
			<point x="268" y="91"/>
			<point x="272" y="236" type="curve" smooth="yes"/>
			<point x="273" y="272"/>
			<point x="311" y="282"/>
			<point x="351" y="282" type="curve" smooth="yes"/>
			<point x="362" y="282"/>
			<point x="373" y="275"/>
			<point x="373" y="260" type="curve" smooth="yes"/>
			<point x="373" y="260" type="line" smooth="yes"/>
			<point x="372" y="42"/>
			<point x="177" y="0"/>
			<point x="-43" y="0" type="curve" smooth="yes"/>
			<point x="-63" y="0"/>
			<point x="-71" y="8"/>
			<point x="-71" y="18" type="curve" smooth="yes"/>
			<point x="-71" y="28"/>
			<point x="-61" y="40"/>
			<point x="-50" y="42" type="curve" smooth="yes"/>
			<point x="0" y="51"/>
			<point x="41" y="175"/>
			<point x="63" y="255" type="curve" smooth="yes"/>
			<point x="70" y="278"/>
			<point x="91" y="279"/>
			<point x="114" y="279" type="curve" smooth="yes"/>
			<point x="115" y="279"/>
			<point x="115" y="279"/>
			<point x="116" y="279" type="curve" smooth="yes"/>
			<point x="138" y="279"/>
			<point x="154" y="279"/>
			<point x="154" y="256" type="curve" smooth="yes"/>
			<point x="154" y="203"/>
			<point x="112" y="110"/>
		</contour>
	</outline>
</glyph>
<glyph name="uni05E4" format="2">
	<advance width="387"/>
	<unicode hex="05E4"/>
	<outline>
		<contour>
			<point x="-13" y="98" type="curve" smooth="yes"/>
			<point x="-13" y="112"/>
			<point x="7" y="157"/>
			<point x="35" y="254" type="curve" smooth="yes"/>
			<point x="41" y="277"/>
			<point x="62" y="279"/>
			<point x="85" y="279" type="curve" smooth="yes"/>
			<point x="86" y="279"/>
			<point x="87" y="279"/>
			<point x="88" y="279" type="curve" smooth="yes"/>
			<point x="110" y="279"/>
			<point x="125" y="279"/>
			<point x="125" y="256" type="curve" smooth="yes"/>
			<point x="125" y="253"/>
			<point x="125" y="251"/>
			<point x="124" y="248" type="curve"/>
			<point x="150" y="265"/>
			<point x="184" y="279"/>
			<point x="219" y="279" type="curve" smooth="yes"/>
			<point x="315" y="279"/>
			<point x="354" y="238"/>
			<point x="354" y="154" type="curve" smooth="yes"/>
			<point x="354" y="73"/>
			<point x="289" y="-45"/>
			<point x="83" y="-45" type="curve" smooth="yes"/>
			<point x="-25" y="-45"/>
			<point x="-238" y="-65"/>
			<point x="-312" y="-105" type="curve" smooth="yes"/>
			<point x="-313" y="-106"/>
			<point x="-315" y="-106"/>
			<point x="-317" y="-106" type="curve" smooth="yes"/>
			<point x="-322" y="-106"/>
			<point x="-325" y="-100"/>
			<point x="-325" y="-94" type="curve" smooth="yes"/>
			<point x="-325" y="-67"/>
			<point x="-262" y="-31"/>
			<point x="-167" y="-14" type="curve" smooth="yes"/>
			<point x="-65" y="4"/>
			<point x="52" y="4"/>
			<point x="85" y="7" type="curve" smooth="yes"/>
			<point x="213" y="16"/>
			<point x="264" y="85"/>
			<point x="268" y="147" type="curve" smooth="yes"/>
			<point x="268" y="150"/>
			<point x="268" y="154"/>
			<point x="268" y="157" type="curve" smooth="yes"/>
			<point x="268" y="216"/>
			<point x="235" y="232"/>
			<point x="194" y="232" type="curve" smooth="yes"/>
			<point x="163" y="232"/>
			<point x="131" y="214"/>
			<point x="110" y="197" type="curve"/>
			<point x="87" y="141"/>
			<point x="41" y="80"/>
			<point x="9" y="80" type="curve" smooth="yes"/>
			<point x="-13" y="80"/>
			<point x="-13" y="86"/>
		</contour>
	</outline>
</glyph>
<glyph name="uni05E6" format="2">
	<advance width="257"/>
	<unicode hex="05E6"/>
	<outline>
		<contour>
			<point x="70" y="656" type="curve" smooth="yes"/>
			<point x="75" y="656"/>
			<point x="80" y="656"/>
			<point x="85" y="656" type="curve" smooth="yes"/>
			<point x="215" y="656"/>
			<point x="276" y="538"/>
			<point x="276" y="439" type="curve" smooth="yes"/>
			<point x="276" y="410"/>
			<point x="274" y="383"/>
			<point x="270" y="357" type="curve"/>
			<point x="352" y="393"/>
			<point x="442" y="455"/>
			<point x="532" y="551" type="curve" smooth="yes"/>
			<point x="553" y="572"/>
			<point x="569" y="580"/>
			<point x="579" y="580" type="curve" smooth="yes"/>
			<point x="590" y="580"/>
			<point x="595" y="572"/>
			<point x="595" y="562" type="curve" smooth="yes"/>
			<point x="595" y="556"/>
			<point x="593" y="548"/>
			<point x="588" y="542" type="curve" smooth="yes"/>
			<point x="470" y="400"/>
			<point x="355" y="319"/>
			<point x="252" y="281" type="curve"/>
			<point x="198" y="107"/>
			<point x="64" y="0"/>
			<point x="-22" y="0" type="curve" smooth="yes"/>
			<point x="-31" y="0"/>
			<point x="-37" y="5"/>
			<point x="-37" y="14" type="curve" smooth="yes"/>
			<point x="-37" y="26"/>
			<point x="-23" y="31"/>
			<point x="-19" y="36" type="curve" smooth="yes"/>
			<point x="3" y="56"/>
			<point x="107" y="102"/>
			<point x="158" y="256" type="curve"/>
			<point x="141" y="254"/>
			<point x="125" y="253"/>
			<point x="109" y="253" type="curve" smooth="yes"/>
			<point x="-42" y="253"/>
			<point x="-140" y="352"/>
			<point x="-140" y="455" type="curve" smooth="yes"/>
			<point x="-140" y="457"/>
			<point x="-140" y="460"/>
			<point x="-140" y="463" type="curve" smooth="yes"/>
			<point x="-134" y="577"/>
			<point x="-59" y="647"/>
		</contour>
		<contour>
			<point x="176" y="326" type="curve"/>
			<point x="182" y="363"/>
			<point x="186" y="404"/>
			<point x="186" y="450" type="curve" smooth="yes"/>
			<point x="186" y="545"/>
			<point x="134" y="610"/>
			<point x="59" y="610" type="curve" smooth="yes"/>
			<point x="-29" y="610"/>
			<point x="-85" y="542"/>
			<point x="-90" y="471" type="curve" smooth="yes"/>
			<point x="-90" y="467"/>
			<point x="-91" y="464"/>
			<point x="-91" y="460" type="curve" smooth="yes"/>
			<point x="-91" y="378"/>
			<point x="-16" y="317"/>
			<point x="97" y="317" type="curve" smooth="yes"/>
			<point x="121" y="317"/>
			<point x="148" y="320"/>
		</contour>
	</outline>
</glyph>
<glyph name="uni05E8" format="2">
	<advance width="274"/>
	<unicode hex="05E8"/>
	<outline>
		<contour>
			<point x="96" y="672" type="curve" smooth="yes"/>
			<point x="98" y="672"/>
			<point x="101" y="672"/>
			<point x="103" y="672" type="curve" smooth="yes"/>
			<point x="223" y="672"/>
			<point x="283" y="594"/>
			<point x="283" y="490" type="curve" smooth="yes"/>
			<point x="283" y="225"/>
			<point x="108" y="0"/>
			<point x="-2" y="0" type="curve" smooth="yes"/>
			<point x="-11" y="0"/>
			<point x="-17" y="5"/>
			<point x="-17" y="14" type="curve" smooth="yes"/>
			<point x="-17" y="26"/>
			<point x="-3" y="31"/>
			<point x="1" y="36" type="curve" smooth="yes"/>
			<point x="30" y="63"/>
			<point x="186" y="183"/>
			<point x="186" y="498" type="curve" smooth="yes"/>
			<point x="186" y="588"/>
			<point x="144" y="632"/>
			<point x="79" y="632" type="curve" smooth="yes"/>
			<point x="-10" y="632"/>
			<point x="-70" y="554"/>
			<point x="-70" y="465" type="curve" smooth="yes"/>
			<point x="-70" y="400"/>
			<point x="-19" y="355"/>
			<point x="61" y="355" type="curve" smooth="yes"/>
			<point x="70" y="355"/>
			<point x="81" y="356"/>
			<point x="91" y="357" type="curve" smooth="yes"/>
			<point x="106" y="359"/>
			<point x="118" y="360"/>
			<point x="127" y="360" type="curve" smooth="yes"/>
			<point x="147" y="360"/>
			<point x="154" y="356"/>
			<point x="154" y="351" type="curve" smooth="yes"/>
			<point x="154" y="346"/>
			<point x="146" y="339"/>
			<point x="134" y="333" type="curve" smooth="yes"/>
			<point x="98" y="316"/>
			<point x="63" y="309"/>
			<point x="29" y="309" type="curve" smooth="yes"/>
			<point x="-65" y="309"/>
			<point x="-142" y="369"/>
			<point x="-142" y="455" type="curve" smooth="yes"/>
			<point x="-142" y="581"/>
			<point x="-33" y="669"/>
		</contour>
	</outline>
</glyph>
<glyph name="uni05E9" format="2">
	<advance width="460"/>
	<unicode hex="05E9"/>
	<outline>
		<contour>
			<point x="179" y="49" type="curve" smooth="yes"/>
			<point x="237" y="54"/>
			<point x="324" y="82"/>
			<point x="325" y="180" type="curve" smooth="yes"/>
			<point x="325" y="216"/>
			<point x="364" y="226"/>
			<point x="404" y="226" type="curve" smooth="yes"/>
			<point x="415" y="226"/>
			<point x="426" y="219"/>
			<point x="426" y="205" type="curve" smooth="yes"/>
			<point x="426" y="85"/>
			<point x="316" y="0"/>
			<point x="174" y="0" type="curve" smooth="yes"/>
			<point x="92" y="0"/>
			<point x="59" y="25"/>
			<point x="46" y="43" type="curve"/>
			<point x="18" y="17"/>
			<point x="-12" y="0"/>
			<point x="-43" y="0" type="curve" smooth="yes"/>
			<point x="-61" y="0"/>
			<point x="-69" y="6"/>
			<point x="-70" y="14" type="curve" smooth="yes"/>
			<point x="-71" y="15"/>
			<point x="-71" y="16"/>
			<point x="-71" y="18" type="curve" smooth="yes"/>
			<point x="-71" y="28"/>
			<point x="-61" y="40"/>
			<point x="-50" y="42" type="curve" smooth="yes"/>
			<point x="-43" y="44"/>
			<point x="-36" y="47"/>
			<point x="-30" y="52" type="curve" smooth="yes"/>
			<point x="2" y="77"/>
			<point x="32" y="144"/>
			<point x="53" y="206" type="curve"/>
			<point x="47" y="211"/>
			<point x="34" y="216"/>
			<point x="34" y="245" type="curve" smooth="yes"/>
			<point x="34" y="247"/>
			<point x="34" y="250"/>
			<point x="35" y="254" type="curve" smooth="yes"/>
			<point x="37" y="280"/>
			<point x="56" y="316"/>
			<point x="107" y="316" type="curve" smooth="yes"/>
			<point x="127" y="316"/>
			<point x="159" y="314"/>
			<point x="164" y="278" type="curve"/>
			<point x="166" y="277"/>
			<point x="168" y="277"/>
			<point x="171" y="277" type="curve" smooth="yes"/>
			<point x="188" y="277"/>
			<point x="212" y="282"/>
			<point x="243" y="299" type="curve" smooth="yes"/>
			<point x="260" y="309"/>
			<point x="274" y="314"/>
			<point x="283" y="314" type="curve" smooth="yes"/>
			<point x="293" y="314"/>
			<point x="297" y="308"/>
			<point x="297" y="300" type="curve" smooth="yes"/>
			<point x="297" y="270"/>
			<point x="237" y="203"/>
			<point x="143" y="198" type="curve"/>
			<point x="130" y="158"/>
			<point x="105" y="112"/>
			<point x="75" y="75" type="curve"/>
			<point x="90" y="63"/>
			<point x="112" y="48"/>
			<point x="158" y="48" type="curve" smooth="yes"/>
			<point x="164" y="48"/>
			<point x="171" y="48"/>
		</contour>
	</outline>
</glyph>
<glyph name="quotedblleft" format="2">
	<advance width="234"/>
	<unicode hex="201C"/>
	<outline>
		<contour>
			<point x="250" y="565" type="curve" smooth="yes"/>
			<point x="254" y="571"/>
			<point x="262" y="577"/>
			<point x="275" y="577" type="curve" smooth="yes"/>
			<point x="283" y="577"/>
			<point x="293" y="575"/>
			<point x="305" y="570" type="curve" smooth="yes"/>
			<point x="320" y="562"/>
			<point x="325" y="553"/>
			<point x="325" y="544" type="curve" smooth="yes"/>
			<point x="325" y="539"/>
			<point x="324" y="535"/>
			<point x="321" y="532" type="curve" smooth="yes"/>
			<point x="291" y="487"/>
			<point x="223" y="414"/>
			<point x="188" y="406" type="curve" smooth="yes"/>
			<point x="184" y="405"/>
			<point x="181" y="405"/>
			<point x="177" y="405" type="curve" smooth="yes"/>
			<point x="162" y="405"/>
			<point x="152" y="413"/>
			<point x="152" y="423" type="curve" smooth="yes"/>
			<point x="152" y="425"/>
			<point x="153" y="426"/>
			<point x="153" y="428" type="curve" smooth="yes"/>
			<point x="159" y="445"/>
			<point x="194" y="480"/>
		</contour>
		<contour>
			<point x="98" y="564" type="curve" smooth="yes"/>
			<point x="102" y="570"/>
			<point x="109" y="576"/>
			<point x="123" y="576" type="curve" smooth="yes"/>
			<point x="131" y="576"/>
			<point x="140" y="574"/>
			<point x="152" y="568" type="curve" smooth="yes"/>
			<point x="167" y="561"/>
			<point x="173" y="551"/>
			<point x="173" y="543" type="curve" smooth="yes"/>
			<point x="173" y="538"/>
			<point x="171" y="534"/>
			<point x="169" y="531" type="curve" smooth="yes"/>
			<point x="138" y="486"/>
			<point x="70" y="413"/>
			<point x="35" y="405" type="curve" smooth="yes"/>
			<point x="32" y="404"/>
			<point x="28" y="404"/>
			<point x="25" y="404" type="curve" smooth="yes"/>
			<point x="10" y="404"/>
			<point x="0" y="412"/>
			<point x="0" y="422" type="curve" smooth="yes"/>
			<point x="0" y="424"/>
			<point x="0" y="425"/>
			<point x="1" y="427" type="curve" smooth="yes"/>
			<point x="6" y="444"/>
			<point x="42" y="479"/>
		</contour>
	</outline>
</glyph>
<glyph name="quotedblbase" format="2">
	<advance width="234"/>
	<unicode hex="201E"/>
	<outline>
		<contour>
			<point x="159" y="74" type="curve" smooth="yes"/>
			<point x="163" y="80"/>
			<point x="171" y="87"/>
			<point x="184" y="87" type="curve" smooth="yes"/>
			<point x="192" y="87"/>
			<point x="202" y="84"/>
			<point x="213" y="79" type="curve" smooth="yes"/>
			<point x="229" y="71"/>
			<point x="234" y="62"/>
			<point x="234" y="53" type="curve" smooth="yes"/>
			<point x="234" y="49"/>
			<point x="233" y="44"/>
			<point x="230" y="41" type="curve" smooth="yes"/>
			<point x="199" y="-4"/>
			<point x="131" y="-77"/>
			<point x="97" y="-85" type="curve" smooth="yes"/>
			<point x="93" y="-86"/>
			<point x="89" y="-86"/>
			<point x="86" y="-86" type="curve" smooth="yes"/>
			<point x="71" y="-86"/>
			<point x="61" y="-78"/>
			<point x="61" y="-68" type="curve" smooth="yes"/>
			<point x="61" y="-66"/>
			<point x="61" y="-64"/>
			<point x="62" y="-63" type="curve" smooth="yes"/>
			<point x="67" y="-46"/>
			<point x="103" y="-10"/>
		</contour>
		<contour>
			<point x="6" y="73" type="curve" smooth="yes"/>
			<point x="10" y="79"/>
			<point x="18" y="85"/>
			<point x="32" y="85" type="curve" smooth="yes"/>
			<point x="39" y="85"/>
			<point x="49" y="83"/>
			<point x="61" y="78" type="curve" smooth="yes"/>
			<point x="76" y="70"/>
			<point x="82" y="61"/>
			<point x="82" y="52" type="curve" smooth="yes"/>
			<point x="82" y="47"/>
			<point x="80" y="43"/>
			<point x="78" y="40" type="curve" smooth="yes"/>
			<point x="47" y="-5"/>
			<point x="-21" y="-78"/>
			<point x="-56" y="-86" type="curve" smooth="yes"/>
			<point x="-60" y="-87"/>
			<point x="-63" y="-87"/>
			<point x="-66" y="-87" type="curve" smooth="yes"/>
			<point x="-81" y="-87"/>
			<point x="-91" y="-79"/>
			<point x="-91" y="-69" type="curve" smooth="yes"/>
			<point x="-91" y="-67"/>
			<point x="-91" y="-66"/>
			<point x="-90" y="-64" type="curve" smooth="yes"/>
			<point x="-85" y="-47"/>
			<point x="-50" y="-11"/>
		</contour>
	</outline>
</glyph>
<glyph name="uniFB4F" format="2">
	<advance width="353"/>
	<unicode hex="FB4F"/>
	<outline>
		<contour>
			<point x="224" y="288" type="curve"/>
			<point x="119" y="146"/>
			<point x="-11" y="21"/>
			<point x="-44" y="9" type="curve" smooth="yes"/>
			<point x="-46" y="8"/>
			<point x="-49" y="7"/>
			<point x="-52" y="7" type="curve" smooth="yes"/>
			<point x="-58" y="7"/>
			<point x="-63" y="10"/>
			<point x="-63" y="19" type="curve" smooth="yes"/>
			<point x="-63" y="26"/>
			<point x="-36" y="52"/>
			<point x="13" y="117" type="curve" smooth="yes"/>
			<point x="71" y="191"/>
			<point x="148" y="292"/>
			<point x="208" y="389" type="curve"/>
			<point x="200" y="446"/>
			<point x="193" y="504"/>
			<point x="193" y="552" type="curve" smooth="yes"/>
			<point x="193" y="639"/>
			<point x="206" y="695"/>
			<point x="280" y="699" type="curve" smooth="yes"/>
			<point x="283" y="700"/>
			<point x="285" y="700"/>
			<point x="288" y="700" type="curve" smooth="yes"/>
			<point x="330" y="700"/>
			<point x="369" y="677"/>
			<point x="369" y="596" type="curve" smooth="yes"/>
			<point x="369" y="529"/>
			<point x="329" y="444"/>
			<point x="274" y="359" type="curve"/>
			<point x="275" y="349"/>
			<point x="277" y="339"/>
			<point x="278" y="329" type="curve" smooth="yes"/>
			<point x="286" y="279"/>
			<point x="302" y="200"/>
			<point x="302" y="133" type="curve" smooth="yes"/>
			<point x="302" y="63"/>
			<point x="285" y="4"/>
			<point x="223" y="0" type="curve" smooth="yes"/>
			<point x="220" y="0"/>
			<point x="217" y="0"/>
			<point x="214" y="0" type="curve" smooth="yes"/>
			<point x="182" y="0"/>
			<point x="147" y="11"/>
			<point x="122" y="41" type="curve" smooth="yes"/>
			<point x="117" y="47"/>
			<point x="115" y="52"/>
			<point x="115" y="58" type="curve" smooth="yes"/>
			<point x="115" y="66"/>
			<point x="120" y="74"/>
			<point x="129" y="82" type="curve" smooth="yes"/>
			<point x="139" y="91"/>
			<point x="151" y="96"/>
			<point x="161" y="96" type="curve" smooth="yes"/>
			<point x="168" y="96"/>
			<point x="175" y="94"/>
			<point x="181" y="88" type="curve" smooth="yes"/>
			<point x="194" y="75"/>
			<point x="207" y="68"/>
			<point x="219" y="68" type="curve" smooth="yes"/>
			<point x="233" y="68"/>
			<point x="243" y="78"/>
			<point x="245" y="101" type="curve" smooth="yes"/>
			<point x="245" y="106"/>
			<point x="245" y="111"/>
			<point x="245" y="116" type="curve" smooth="yes"/>
			<point x="245" y="158"/>
			<point x="236" y="220"/>
		</contour>
		<contour>
			<point x="258" y="477" type="curve"/>
			<point x="283" y="527"/>
			<point x="299" y="573"/>
			<point x="299" y="609" type="curve" smooth="yes"/>
			<point x="299" y="610"/>
			<point x="299" y="610"/>
			<point x="299" y="610" type="curve" smooth="yes"/>
			<point x="299" y="647"/>
			<point x="291" y="662"/>
			<point x="277" y="662" type="curve" smooth="yes"/>
			<point x="276" y="662"/>
			<point x="274" y="661"/>
			<point x="273" y="661" type="curve" smooth="yes"/>
			<point x="253" y="657"/>
			<point x="248" y="642"/>
			<point x="248" y="611" type="curve" smooth="yes"/>
			<point x="248" y="609"/>
			<point x="248" y="608"/>
			<point x="248" y="606" type="curve" smooth="yes"/>
			<point x="248" y="574"/>
			<point x="252" y="529"/>
		</contour>
	</outline>
</glyph>
<glyph name="uni05D0.alt.yud" format="2">
	<advance width="236"/>
	<outline>
		<contour>
			<point x="3" y="-2" type="curve" smooth="yes"/>
			<point x="-69" y="-2"/>
			<point x="-86" y="95"/>
			<point x="-86" y="95" type="curve"/>
			<point x="-37" y="134" type="line" smooth="yes"/>
			<point x="-37" y="134"/>
			<point x="-37" y="130"/>
			<point x="-37" y="123" type="curve" smooth="yes"/>
			<point x="-37" y="100"/>
			<point x="-34" y="46"/>
			<point x="-1" y="46" type="curve" smooth="yes"/>
			<point x="105" y="46"/>
			<point x="205" y="672"/>
			<point x="364" y="700" type="curve" smooth="yes"/>
			<point x="365" y="700"/>
			<point x="366" y="700"/>
			<point x="367" y="700" type="curve" smooth="yes"/>
			<point x="375" y="700"/>
			<point x="379" y="693"/>
			<point x="379" y="685" type="curve" smooth="yes"/>
			<point x="379" y="676"/>
			<point x="374" y="667"/>
			<point x="367" y="664" type="curve" smooth="yes"/>
			<point x="284" y="635"/>
			<point x="205" y="-2"/>
		</contour>
	</outline>
</glyph>
<glyph name="uni05D1_quotesingle" format="2">
	<advance width="305"/>
	<outline>
		<contour>
			<point x="66" y="0" type="curve" smooth="yes"/>
			<point x="-32" y="0"/>
			<point x="-78" y="52"/>
			<point x="-78" y="76" type="curve" smooth="yes"/>
			<point x="-78" y="83"/>
			<point x="-74" y="87"/>
			<point x="-66" y="87" type="curve" smooth="yes"/>
			<point x="-63" y="87"/>
			<point x="-60" y="87"/>
			<point x="-57" y="86" type="curve" smooth="yes"/>
			<point x="-42" y="81"/>
			<point x="-2" y="51"/>
			<point x="55" y="51" type="curve" smooth="yes"/>
			<point x="59" y="51"/>
			<point x="63" y="51"/>
			<point x="67" y="51" type="curve" smooth="yes"/>
			<point x="128" y="56"/>
			<point x="180" y="104"/>
			<point x="185" y="164" type="curve" smooth="yes"/>
			<point x="185" y="166"/>
			<point x="185" y="169"/>
			<point x="185" y="172" type="curve" smooth="yes"/>
			<point x="185" y="214"/>
			<point x="154" y="232"/>
			<point x="118" y="232" type="curve" smooth="yes"/>
			<point x="79" y="232"/>
			<point x="62" y="216"/>
			<point x="45" y="206" type="curve" smooth="yes"/>
			<point x="37" y="202"/>
			<point x="31" y="200"/>
			<point x="26" y="200" type="curve" smooth="yes"/>
			<point x="18" y="200"/>
			<point x="12" y="204"/>
			<point x="10" y="209" type="curve" smooth="yes"/>
			<point x="9" y="211"/>
			<point x="9" y="212"/>
			<point x="9" y="214" type="curve" smooth="yes"/>
			<point x="9" y="236"/>
			<point x="71" y="279"/>
			<point x="136" y="279" type="curve" smooth="yes"/>
			<point x="136" y="279" type="line" smooth="yes"/>
			<point x="199" y="279"/>
			<point x="271" y="249"/>
			<point x="271" y="177" type="curve" smooth="yes"/>
			<point x="271" y="177"/>
			<point x="271" y="177"/>
			<point x="271" y="176" type="curve" smooth="yes"/>
			<point x="271" y="172"/>
			<point x="271" y="168"/>
			<point x="270" y="164" type="curve" smooth="yes"/>
			<point x="260" y="58"/>
			<point x="166" y="0"/>
		</contour>
		<contour>
			<point x="196" y="628" type="curve" smooth="yes"/>
			<point x="200" y="634"/>
			<point x="208" y="640"/>
			<point x="221" y="640" type="curve" smooth="yes"/>
			<point x="229" y="640"/>
			<point x="239" y="638"/>
			<point x="250" y="632" type="curve" smooth="yes"/>
			<point x="266" y="625"/>
			<point x="271" y="615"/>
			<point x="271" y="607" type="curve" smooth="yes"/>
			<point x="271" y="602"/>
			<point x="270" y="598"/>
			<point x="267" y="594" type="curve" smooth="yes"/>
			<point x="236" y="550"/>
			<point x="168" y="476"/>
			<point x="134" y="469" type="curve" smooth="yes"/>
			<point x="130" y="468"/>
			<point x="126" y="467"/>
			<point x="123" y="467" type="curve" smooth="yes"/>
			<point x="108" y="467"/>
			<point x="98" y="475"/>
			<point x="98" y="486" type="curve" smooth="yes"/>
			<point x="98" y="487"/>
			<point x="98" y="489"/>
			<point x="99" y="491" type="curve" smooth="yes"/>
			<point x="104" y="508"/>
			<point x="140" y="543"/>
		</contour>
	</outline>
</glyph>
<glyph name="uni05D3_uni05D9_uni05D9_uni05D5" format="2">
	<advance width="615"/>
	<outline>
		<contour>
			<point x="339" y="354" type="curve" smooth="yes"/>
			<point x="436" y="343"/>
			<point x="582" y="321"/>
			<point x="582" y="197" type="curve" smooth="yes"/>
			<point x="582" y="116"/>
			<point x="523" y="0"/>
			<point x="415" y="0" type="curve" smooth="yes"/>
			<point x="395" y="0"/>
			<point x="388" y="8"/>
			<point x="388" y="18" type="curve" smooth="yes"/>
			<point x="388" y="28"/>
			<point x="397" y="40"/>
			<point x="408" y="42" type="curve" smooth="yes"/>
			<point x="466" y="52"/>
			<point x="484" y="115"/>
			<point x="492" y="187" type="curve" smooth="yes"/>
			<point x="492" y="192"/>
			<point x="493" y="197"/>
			<point x="493" y="202" type="curve" smooth="yes"/>
			<point x="493" y="296"/>
			<point x="387" y="301"/>
			<point x="315" y="313" type="curve" smooth="yes"/>
			<point x="284" y="318"/>
			<point x="216" y="325"/>
			<point x="147" y="339" type="curve"/>
			<point x="106" y="235"/>
			<point x="64" y="119"/>
			<point x="36" y="20" type="curve" smooth="yes"/>
			<point x="32" y="3"/>
			<point x="20" y="-1"/>
			<point x="5" y="-1" type="curve" smooth="yes"/>
			<point x="0" y="-1"/>
			<point x="-5" y="-1"/>
			<point x="-11" y="0" type="curve" smooth="yes"/>
			<point x="-12" y="0"/>
			<point x="-12" y="0"/>
			<point x="-13" y="0" type="curve" smooth="yes"/>
			<point x="-34" y="2"/>
			<point x="-45" y="3"/>
			<point x="-45" y="22" type="curve" smooth="yes"/>
			<point x="-45" y="23"/>
			<point x="-45" y="25"/>
			<point x="-45" y="27" type="curve" smooth="yes"/>
			<point x="-41" y="66"/>
			<point x="12" y="214"/>
			<point x="74" y="357" type="curve"/>
			<point x="4" y="377"/>
			<point x="-54" y="406"/>
			<point x="-54" y="450" type="curve" smooth="yes"/>
			<point x="-54" y="453"/>
			<point x="-53" y="457"/>
			<point x="-52" y="461" type="curve" smooth="yes"/>
			<point x="-39" y="524"/>
			<point x="34" y="539"/>
			<point x="97" y="539" type="curve" smooth="yes"/>
			<point x="119" y="539"/>
			<point x="141" y="538"/>
			<point x="158" y="535" type="curve"/>
			<point x="197" y="610"/>
			<point x="231" y="662"/>
			<point x="250" y="662" type="curve" smooth="yes"/>
			<point x="251" y="662"/>
			<point x="251" y="662"/>
			<point x="252" y="662" type="curve" smooth="yes"/>
			<point x="267" y="660"/>
			<point x="270" y="655"/>
			<point x="270" y="649" type="curve" smooth="yes"/>
			<point x="270" y="646"/>
			<point x="270" y="643"/>
			<point x="269" y="640" type="curve" smooth="yes"/>
			<point x="267" y="629"/>
			<point x="219" y="520"/>
			<point x="165" y="384" type="curve"/>
			<point x="228" y="369"/>
			<point x="295" y="359"/>
		</contour>
		<contour>
			<point x="287" y="93" type="curve" smooth="yes"/>
			<point x="287" y="108"/>
			<point x="287" y="96"/>
			<point x="314" y="193" type="curve" smooth="yes"/>
			<point x="321" y="216"/>
			<point x="342" y="218"/>
			<point x="364" y="218" type="curve" smooth="yes"/>
			<point x="365" y="218"/>
			<point x="366" y="218"/>
			<point x="367" y="218" type="curve" smooth="yes"/>
			<point x="390" y="218"/>
			<point x="404" y="218"/>
			<point x="404" y="195" type="curve" smooth="yes"/>
			<point x="404" y="150"/>
			<point x="346" y="76"/>
			<point x="309" y="76" type="curve" smooth="yes"/>
			<point x="287" y="76"/>
			<point x="287" y="81"/>
		</contour>
		<contour>
			<point x="137" y="93" type="curve" smooth="yes"/>
			<point x="137" y="108"/>
			<point x="137" y="96"/>
			<point x="164" y="193" type="curve" smooth="yes"/>
			<point x="170" y="216"/>
			<point x="191" y="218"/>
			<point x="214" y="218" type="curve" smooth="yes"/>
			<point x="215" y="218"/>
			<point x="216" y="218"/>
			<point x="217" y="218" type="curve" smooth="yes"/>
			<point x="239" y="218"/>
			<point x="254" y="218"/>
			<point x="254" y="195" type="curve" smooth="yes"/>
			<point x="254" y="150"/>
			<point x="196" y="76"/>
			<point x="159" y="76" type="curve" smooth="yes"/>
			<point x="137" y="76"/>
			<point x="137" y="81"/>
		</contour>
		<contour>
			<point x="142" y="504" type="curve"/>
			<point x="127" y="506"/>
			<point x="109" y="508"/>
			<point x="92" y="508" type="curve" smooth="yes"/>
			<point x="56" y="508"/>
			<point x="21" y="500"/>
			<point x="12" y="469" type="curve" smooth="yes"/>
			<point x="12" y="467"/>
			<point x="11" y="464"/>
			<point x="11" y="462" type="curve" smooth="yes"/>
			<point x="11" y="440"/>
			<point x="46" y="420"/>
			<point x="95" y="404" type="curve"/>
			<point x="111" y="439"/>
			<point x="126" y="473"/>
		</contour>
	</outline>
</glyph>
<glyph name="uni05D4_uni05F3" format="2">
	<advance width="200"/>
	<outline>
		<contour>
			<point x="125" y="628" type="curve" smooth="yes"/>
			<point x="128" y="634"/>
			<point x="136" y="640"/>
			<point x="150" y="640" type="curve" smooth="yes"/>
			<point x="158" y="640"/>
			<point x="167" y="638"/>
			<point x="179" y="632" type="curve" smooth="yes"/>
			<point x="194" y="625"/>
			<point x="200" y="615"/>
			<point x="200" y="607" type="curve" smooth="yes"/>
			<point x="200" y="602"/>
			<point x="198" y="598"/>
			<point x="196" y="594" type="curve" smooth="yes"/>
			<point x="165" y="550"/>
			<point x="97" y="476"/>
			<point x="62" y="469" type="curve" smooth="yes"/>
			<point x="59" y="468"/>
			<point x="55" y="467"/>
			<point x="52" y="467" type="curve" smooth="yes"/>
			<point x="37" y="467"/>
			<point x="27" y="475"/>
			<point x="27" y="486" type="curve" smooth="yes"/>
			<point x="27" y="487"/>
			<point x="27" y="489"/>
			<point x="28" y="491" type="curve" smooth="yes"/>
			<point x="33" y="508"/>
			<point x="69" y="543"/>
		</contour>
		<contour>
			<point x="70" y="240" type="curve" smooth="yes"/>
			<point x="70" y="242"/>
			<point x="70" y="243"/>
			<point x="70" y="245" type="curve" smooth="yes"/>
			<point x="70" y="277"/>
			<point x="102" y="287"/>
			<point x="140" y="290" type="curve" smooth="yes"/>
			<point x="141" y="291"/>
			<point x="142" y="291"/>
			<point x="143" y="291" type="curve" smooth="yes"/>
			<point x="153" y="291"/>
			<point x="164" y="285"/>
			<point x="166" y="271" type="curve" smooth="yes"/>
			<point x="166" y="262"/>
			<point x="167" y="254"/>
			<point x="167" y="246" type="curve" smooth="yes"/>
			<point x="167" y="91"/>
			<point x="33" y="78"/>
			<point x="33" y="15" type="curve" smooth="yes"/>
			<point x="33" y="8"/>
			<point x="35" y="-1"/>
			<point x="39" y="-10" type="curve" smooth="yes"/>
			<point x="41" y="-14"/>
			<point x="42" y="-19"/>
			<point x="42" y="-24" type="curve" smooth="yes"/>
			<point x="42" y="-31"/>
			<point x="39" y="-39"/>
			<point x="29" y="-42" type="curve" smooth="yes"/>
			<point x="22" y="-45"/>
			<point x="13" y="-47"/>
			<point x="3" y="-47" type="curve" smooth="yes"/>
			<point x="-12" y="-47"/>
			<point x="-28" y="-42"/>
			<point x="-37" y="-27" type="curve" smooth="yes"/>
			<point x="-46" y="-10"/>
			<point x="-51" y="3"/>
			<point x="-51" y="15" type="curve" smooth="yes"/>
			<point x="-51" y="80"/>
			<point x="71" y="95"/>
			<point x="71" y="222" type="curve" smooth="yes"/>
			<point x="71" y="228"/>
			<point x="71" y="234"/>
		</contour>
	</outline>
</glyph>
<glyph name="uni05D6_uni05F3" format="2">
	<advance width="200"/>
	<outline>
		<contour>
			<point x="203" y="628" type="curve" smooth="yes"/>
			<point x="206" y="634"/>
			<point x="214" y="640"/>
			<point x="228" y="640" type="curve" smooth="yes"/>
			<point x="236" y="640"/>
			<point x="245" y="638"/>
			<point x="257" y="632" type="curve" smooth="yes"/>
			<point x="272" y="625"/>
			<point x="278" y="615"/>
			<point x="278" y="607" type="curve" smooth="yes"/>
			<point x="278" y="602"/>
			<point x="276" y="598"/>
			<point x="274" y="594" type="curve" smooth="yes"/>
			<point x="243" y="550"/>
			<point x="175" y="476"/>
			<point x="140" y="469" type="curve" smooth="yes"/>
			<point x="137" y="468"/>
			<point x="133" y="467"/>
			<point x="130" y="467" type="curve" smooth="yes"/>
			<point x="115" y="467"/>
			<point x="105" y="475"/>
			<point x="105" y="486" type="curve" smooth="yes"/>
			<point x="105" y="487"/>
			<point x="105" y="489"/>
			<point x="106" y="491" type="curve" smooth="yes"/>
			<point x="111" y="508"/>
			<point x="147" y="543"/>
		</contour>
		<contour>
			<point x="-28" y="-1" type="curve" smooth="yes"/>
			<point x="-39" y="-1"/>
			<point x="-51" y="6"/>
			<point x="-51" y="20" type="curve" smooth="yes"/>
			<point x="-51" y="31"/>
			<point x="51" y="305"/>
			<point x="162" y="305" type="curve" smooth="yes"/>
			<point x="184" y="305"/>
			<point x="199" y="286"/>
			<point x="199" y="265" type="curve" smooth="yes"/>
			<point x="199" y="224"/>
			<point x="169" y="185"/>
			<point x="142" y="185" type="curve" smooth="yes"/>
			<point x="126" y="185"/>
			<point x="105" y="185"/>
			<point x="95" y="169" type="curve" smooth="yes"/>
			<point x="19" y="55"/>
			<point x="0" y="-1"/>
		</contour>
	</outline>
</glyph>
<glyph name="uni05D9.alt" format="2">
	<advance width="132"/>
	<outline>
		<contour>
			<point x="-30" y="35" type="curve" smooth="yes"/>
			<point x="-30" y="49"/>
			<point x="-19" y="54"/>
			<point x="9" y="150" type="curve" smooth="yes"/>
			<point x="16" y="174"/>
			<point x="37" y="176"/>
			<point x="59" y="176" type="curve" smooth="yes"/>
			<point x="60" y="176"/>
			<point x="61" y="176"/>
			<point x="62" y="176" type="curve" smooth="yes"/>
			<point x="85" y="176"/>
			<point x="99" y="176"/>
			<point x="99" y="152" type="curve" smooth="yes"/>
			<point x="99" y="108"/>
			<point x="29" y="17"/>
			<point x="-8" y="17" type="curve" smooth="yes"/>
			<point x="-30" y="17"/>
			<point x="-30" y="22"/>
		</contour>
	</outline>
</glyph>
<glyph name="uni05E1.alt" format="2">
	<advance width="607"/>
	<outline>
		<contour>
			<point x="127" y="41" type="curve" smooth="yes"/>
			<point x="224" y="66"/>
			<point x="255" y="205"/>
			<point x="269" y="255" type="curve" smooth="yes"/>
			<point x="276" y="278"/>
			<point x="297" y="279"/>
			<point x="319" y="279" type="curve" smooth="yes"/>
			<point x="321" y="279"/>
			<point x="321" y="279"/>
			<point x="322" y="279" type="curve" smooth="yes"/>
			<point x="344" y="279"/>
			<point x="359" y="279"/>
			<point x="359" y="256" type="curve" smooth="yes"/>
			<point x="359" y="256"/>
			<point x="359" y="255"/>
			<point x="359" y="255" type="curve"/>
			<point x="385" y="270"/>
			<point x="413" y="279"/>
			<point x="444" y="279" type="curve"/>
			<point x="534" y="279"/>
			<point x="566" y="229"/>
			<point x="566" y="176" type="curve" smooth="yes"/>
			<point x="566" y="172"/>
			<point x="566" y="168"/>
			<point x="565" y="164" type="curve" smooth="yes"/>
			<point x="555" y="58"/>
			<point x="449" y="0"/>
			<point x="361" y="0" type="curve" smooth="yes"/>
			<point x="311" y="0"/>
			<point x="285" y="29"/>
			<point x="268" y="61" type="curve"/>
			<point x="218" y="5"/>
			<point x="156" y="-19"/>
			<point x="100" y="-19" type="curve" smooth="yes"/>
			<point x="15" y="-19"/>
			<point x="-58" y="37"/>
			<point x="-58" y="125" type="curve" smooth="yes"/>
			<point x="-58" y="168"/>
			<point x="-40" y="220"/>
			<point x="1" y="276" type="curve" smooth="yes"/>
			<point x="21" y="303"/>
			<point x="42" y="316"/>
			<point x="55" y="316" type="curve" smooth="yes"/>
			<point x="63" y="316"/>
			<point x="68" y="311"/>
			<point x="68" y="302" type="curve" smooth="yes"/>
			<point x="68" y="292"/>
			<point x="63" y="278"/>
			<point x="50" y="258" type="curve" smooth="yes"/>
			<point x="19" y="211"/>
			<point x="4" y="166"/>
			<point x="4" y="128" type="curve" smooth="yes"/>
			<point x="4" y="73"/>
			<point x="35" y="36"/>
			<point x="90" y="36" type="curve" smooth="yes"/>
			<point x="101" y="36"/>
			<point x="113" y="38"/>
		</contour>
		<contour>
			<point x="317" y="136" type="curve" smooth="yes"/>
			<point x="315" y="128"/>
			<point x="313" y="120"/>
			<point x="313" y="111" type="curve" smooth="yes"/>
			<point x="313" y="79"/>
			<point x="332" y="46"/>
			<point x="363" y="46" type="curve" smooth="yes"/>
			<point x="427" y="46"/>
			<point x="475" y="108"/>
			<point x="480" y="164" type="curve" smooth="yes"/>
			<point x="480" y="166"/>
			<point x="480" y="169"/>
			<point x="480" y="172" type="curve" smooth="yes"/>
			<point x="480" y="214"/>
			<point x="452" y="228"/>
			<point x="427" y="229" type="curve" smooth="yes"/>
			<point x="422" y="230"/>
			<point x="418" y="230"/>
			<point x="413" y="230" type="curve" smooth="yes"/>
			<point x="348" y="230"/>
			<point x="335" y="192"/>
		</contour>
	</outline>
</glyph>
<glyph name="uni05E8_uni05D1_quotesingle" format="2">
	<advance width="559"/>
	<outline>
		<contour>
			<point x="98" y="650" type="curve" smooth="yes"/>
			<point x="102" y="656"/>
			<point x="110" y="662"/>
			<point x="123" y="662" type="curve" smooth="yes"/>
			<point x="131" y="662"/>
			<point x="141" y="660"/>
			<point x="152" y="654" type="curve" smooth="yes"/>
			<point x="168" y="647"/>
			<point x="173" y="637"/>
			<point x="173" y="629" type="curve" smooth="yes"/>
			<point x="173" y="624"/>
			<point x="172" y="620"/>
			<point x="169" y="617" type="curve" smooth="yes"/>
			<point x="139" y="572"/>
			<point x="70" y="499"/>
			<point x="36" y="491" type="curve" smooth="yes"/>
			<point x="32" y="490"/>
			<point x="28" y="490"/>
			<point x="25" y="490" type="curve" smooth="yes"/>
			<point x="10" y="490"/>
			<point x="0" y="498"/>
			<point x="0" y="508" type="curve" smooth="yes"/>
			<point x="0" y="510"/>
			<point x="1" y="511"/>
			<point x="1" y="513" type="curve" smooth="yes"/>
			<point x="6" y="530"/>
			<point x="42" y="565"/>
		</contour>
		<contour>
			<point x="66" y="0" type="curve" smooth="yes"/>
			<point x="-32" y="0"/>
			<point x="-78" y="52"/>
			<point x="-78" y="76" type="curve" smooth="yes"/>
			<point x="-78" y="83"/>
			<point x="-74" y="87"/>
			<point x="-66" y="87" type="curve" smooth="yes"/>
			<point x="-63" y="87"/>
			<point x="-60" y="87"/>
			<point x="-57" y="86" type="curve" smooth="yes"/>
			<point x="-42" y="81"/>
			<point x="-2" y="51"/>
			<point x="55" y="51" type="curve" smooth="yes"/>
			<point x="59" y="51"/>
			<point x="63" y="51"/>
			<point x="67" y="51" type="curve" smooth="yes"/>
			<point x="128" y="56"/>
			<point x="180" y="104"/>
			<point x="185" y="164" type="curve" smooth="yes"/>
			<point x="185" y="166"/>
			<point x="185" y="169"/>
			<point x="185" y="172" type="curve" smooth="yes"/>
			<point x="185" y="214"/>
			<point x="154" y="232"/>
			<point x="118" y="232" type="curve" smooth="yes"/>
			<point x="79" y="232"/>
			<point x="62" y="216"/>
			<point x="45" y="206" type="curve" smooth="yes"/>
			<point x="37" y="202"/>
			<point x="31" y="200"/>
			<point x="26" y="200" type="curve" smooth="yes"/>
			<point x="18" y="200"/>
			<point x="12" y="204"/>
			<point x="10" y="209" type="curve" smooth="yes"/>
			<point x="9" y="211"/>
			<point x="9" y="212"/>
			<point x="9" y="214" type="curve" smooth="yes"/>
			<point x="9" y="236"/>
			<point x="71" y="279"/>
			<point x="136" y="279" type="curve" smooth="yes"/>
			<point x="136" y="279" type="line" smooth="yes"/>
			<point x="199" y="279"/>
			<point x="271" y="249"/>
			<point x="271" y="177" type="curve" smooth="yes"/>
			<point x="271" y="177"/>
			<point x="271" y="177"/>
			<point x="271" y="176" type="curve" smooth="yes"/>
			<point x="271" y="172"/>
			<point x="271" y="168"/>
			<point x="270" y="164" type="curve" smooth="yes"/>
			<point x="260" y="58"/>
			<point x="166" y="0"/>
		</contour>
		<contour>
			<point x="381" y="672" type="curve" smooth="yes"/>
			<point x="383" y="672"/>
			<point x="386" y="672"/>
			<point x="388" y="672" type="curve" smooth="yes"/>
			<point x="508" y="672"/>
			<point x="568" y="594"/>
			<point x="568" y="490" type="curve" smooth="yes"/>
			<point x="568" y="225"/>
			<point x="393" y="0"/>
			<point x="283" y="0" type="curve" smooth="yes"/>
			<point x="274" y="0"/>
			<point x="268" y="5"/>
			<point x="268" y="14" type="curve" smooth="yes"/>
			<point x="268" y="26"/>
			<point x="282" y="31"/>
			<point x="286" y="36" type="curve" smooth="yes"/>
			<point x="315" y="63"/>
			<point x="471" y="183"/>
			<point x="471" y="498" type="curve" smooth="yes"/>
			<point x="471" y="588"/>
			<point x="429" y="632"/>
			<point x="364" y="632" type="curve" smooth="yes"/>
			<point x="276" y="632"/>
			<point x="219" y="556"/>
			<point x="215" y="471" type="curve" smooth="yes"/>
			<point x="215" y="469"/>
			<point x="215" y="467"/>
			<point x="215" y="465" type="curve" smooth="yes"/>
			<point x="215" y="400"/>
			<point x="266" y="355"/>
			<point x="346" y="355" type="curve" smooth="yes"/>
			<point x="355" y="355"/>
			<point x="366" y="356"/>
			<point x="376" y="357" type="curve" smooth="yes"/>
			<point x="391" y="359"/>
			<point x="403" y="360"/>
			<point x="412" y="360" type="curve" smooth="yes"/>
			<point x="432" y="360"/>
			<point x="439" y="356"/>
			<point x="439" y="351" type="curve" smooth="yes"/>
			<point x="439" y="346"/>
			<point x="431" y="339"/>
			<point x="418" y="333" type="curve" smooth="yes"/>
			<point x="383" y="316"/>
			<point x="348" y="309"/>
			<point x="314" y="309" type="curve" smooth="yes"/>
			<point x="220" y="309"/>
			<point x="142" y="369"/>
			<point x="142" y="455" type="curve" smooth="yes"/>
			<point x="142" y="581"/>
			<point x="252" y="669"/>
		</contour>
	</outline>
</glyph>
